<svg width="366" height="400" viewBox="0 0 366 400" fill="none" xmlns="http://www.w3.org/2000/svg">
<g clip-path="url(#clip0_8991_15565)">
<rect x="32" y="66.6667" width="333.333" height="333.333" rx="166.667" fill="#FEF2F2"/>
<path d="M145.212 174.902C145.212 174.902 127.441 186.807 122.777 208.333C119.095 225.245 109.032 314.541 109.032 314.541L91.4082 348.904L102.92 376.272C112.756 376.928 122.51 374.114 130.484 368.319L138.216 362.699L152.428 341.639L145.212 174.902Z" fill="#EBEBEB"/>
<path d="M326.184 272.396L340.666 269.942C340.666 269.942 310.107 185.58 291.944 177.332L278.738 171.27V171.024L256.966 162.139L231.488 152.787L229.549 152.075L230.359 152.861L179.305 156.125L175.329 159.144L149.139 172.841C149.139 172.841 137.48 176.719 126.901 190.489C116.322 204.259 100.883 274.605 100.883 274.605L135.124 288.694L143.641 345.541L121.894 454.056L308.438 450.497L268.11 337.785L274.369 281.503L326.184 272.396Z" fill="#EF4444"/>
<g opacity="0.3">
<path d="M140.45 366.061C159.526 375.019 180.193 380.092 201.248 380.985C208.612 381.279 216.638 380.985 222.922 376.935C225.369 374.962 227.999 373.228 230.776 371.756C234.753 370.16 239.22 370.921 243.466 371.388C253.363 372.464 263.372 371.808 273.043 369.449C274.528 369.222 275.917 368.575 277.044 367.583C277.573 367.068 277.881 366.369 277.903 365.632C277.926 364.895 277.662 364.178 277.167 363.631C276.401 363.139 275.5 362.899 274.59 362.944L141.456 356.292L140.45 366.061Z" fill="black"/>
</g>
<path d="M128.374 231.651C128.742 231.651 131.393 249.103 134.314 270.752C137.234 292.401 139.345 310.024 139.002 310.024C138.658 310.024 135.983 292.573 133.062 270.924C130.141 249.275 128.03 231.7 128.374 231.651Z" fill="#263238"/>
<path d="M198.303 216.776C197.599 216.254 196.964 215.643 196.413 214.96C195.235 213.733 193.615 211.941 191.504 209.707L184.484 201.804C181.882 198.809 178.937 195.545 176.188 191.838C173.513 188.365 171.393 184.499 169.904 180.376C168.738 176.961 168.287 173.344 168.579 169.748C168.759 167.335 169.418 164.981 170.518 162.826C170.881 162.013 171.388 161.273 172.015 160.641C170.596 163.508 169.762 166.629 169.561 169.821C169.427 173.276 169.952 176.724 171.107 179.983C172.627 183.963 174.719 187.701 177.317 191.078C180.017 194.735 182.913 197.999 185.49 201.018L192.289 209.118C194.204 211.426 195.726 213.316 196.781 214.641C197.36 215.299 197.87 216.015 198.303 216.776Z" fill="#263238"/>
<path d="M242.902 156.984C242.92 157.982 242.821 158.979 242.607 159.954C242.106 162.641 241.341 165.272 240.325 167.809C236.661 176.08 231.455 183.578 224.984 189.899C217.792 197.508 211.14 204.258 206.305 209.118L200.537 214.837C199.865 215.578 199.117 216.244 198.303 216.826C198.834 215.98 199.46 215.197 200.169 214.494L205.667 208.505L224.051 189.016C230.412 182.803 235.637 175.526 239.49 167.514C240.844 164.078 241.983 160.561 242.902 156.984Z" fill="#263238"/>
<path d="M272.847 281.724L278.763 314.737L200.046 326.322L204.587 362.551C204.587 362.551 301.811 367.878 312.586 365.497C326.16 362.502 336.542 346.229 336.199 322.469C336.076 313.068 331.707 294.291 326.16 272.421L272.847 281.724Z" fill="#EBEBEB"/>
<path d="M282.445 173.847C282.445 173.994 280.726 174.043 277.806 174.951C273.712 176.325 270.02 178.685 267.055 181.824C262.674 186.496 259.808 192.382 258.832 198.711C258.202 202.432 258.021 206.214 258.292 209.978C258.618 214.032 259.266 218.054 260.231 222.005C263.839 238.377 267.128 253.177 269.534 264.125C270.687 269.525 271.571 273.943 271.988 276.962C272.258 278.484 272.455 279.662 272.553 280.472C272.618 280.887 272.618 281.309 272.553 281.724C272.553 281.724 272.136 280.055 271.424 277.06C270.712 274.065 269.706 269.549 268.478 264.321C266.024 253.57 262.391 238.769 258.808 222.275C257.83 218.243 257.182 214.139 256.868 210.002C256.606 206.137 256.82 202.254 257.507 198.441C258.565 191.91 261.617 185.866 266.245 181.137C269.426 177.935 273.397 175.631 277.756 174.461C278.915 174.161 280.098 173.964 281.291 173.871C281.674 173.83 282.06 173.822 282.445 173.847Z" fill="#263238"/>
<path d="M8.66602 314.712L122.409 356.832L218.308 371.486L104.295 315.915L8.66602 314.712Z" fill="#263238"/>
<path d="M57.3392 360.269C56.4341 354.21 54.385 348.379 51.3011 343.087C50.6315 342.084 50.1029 340.994 49.7302 339.847C49.5576 339.267 49.5277 338.654 49.6431 338.06C49.7585 337.466 50.0157 336.908 50.3929 336.435C51.8411 334.864 54.5165 335.551 56.3083 336.754C59.9492 339.412 62.635 343.174 63.9665 347.48C65.2523 351.766 66.0752 356.176 66.421 360.637" fill="#FFBE9D"/>
<path d="M101.693 349.297H96.121C94.762 347.934 93.0693 346.953 91.212 346.449C90.515 346.334 89.7999 346.41 89.1429 346.67C88.4858 346.929 87.9115 347.362 87.4811 347.922C89.9356 343.749 92.7338 339.159 93.2492 337.908C94.2801 335.453 92.022 333.637 88.3402 333.637C84.6584 333.637 68.5812 356.439 68.5812 356.439C68.5812 356.439 78.5957 338.104 79.5529 335.281C82.0075 328.286 74.3248 327.77 71.5512 331.158C68.0903 335.33 54.1485 356.439 54.1485 356.439C53.4017 357.682 52.9396 359.076 52.7953 360.518C52.651 361.961 52.8282 363.418 53.314 364.785C55.1549 368.859 60.4567 367.239 60.4567 367.239C60.5298 368.428 60.9126 369.576 61.5671 370.571C62.2217 371.566 63.1251 372.372 64.1876 372.909C68.2621 375.167 73.6375 372.541 73.6375 372.541L94.452 377.229L101.987 376.468C107.111 375.954 111.915 373.742 115.637 370.184C119.359 366.626 121.786 361.927 122.532 356.832L101.693 349.297Z" fill="#FFBE9D"/>
<path d="M87.653 347.603C85.8985 351.043 83.8539 354.328 81.5413 357.421C79.7249 360.023 78.0804 362.33 76.8286 364.048C76.2169 364.987 75.5183 365.867 74.7422 366.675C75.2206 365.656 75.796 364.686 76.4604 363.778C77.5895 362.036 79.2094 359.655 81.0013 357.053C82.7931 354.451 84.4376 352.144 85.6403 350.401L87.0885 348.413C87.4567 347.824 87.604 347.603 87.653 347.603Z" fill="#EB996E"/>
<path d="M86.4258 370.798C86.9236 369.61 87.5404 368.475 88.2667 367.411C89.4939 365.349 91.2367 362.502 93.1757 359.459C94.133 357.912 95.0412 356.439 95.8021 355.089C96.4629 353.909 96.6305 352.515 96.2684 351.211C95.8971 349.999 95.288 348.872 94.4766 347.898C94.4766 347.898 94.8448 348.07 95.2866 348.585C95.9374 349.287 96.4236 350.126 96.7103 351.04C96.9423 351.739 97.0292 352.479 96.9659 353.213C96.9026 353.947 96.6904 354.661 96.3421 355.31C95.5812 356.734 94.673 358.207 93.7157 359.753C91.8012 362.87 89.9849 365.619 88.6594 367.608C87.9827 368.717 87.2366 369.783 86.4258 370.798Z" fill="#EB996E"/>
<path d="M97.3482 372.885C97.5695 371.76 97.941 370.67 98.4527 369.645L99.95 366.258C100.572 364.894 101.081 363.482 101.472 362.036C101.66 361.353 101.698 360.637 101.584 359.938C101.47 359.239 101.205 358.573 100.809 357.986C100.42 357.51 99.9117 357.146 99.3363 356.93C98.8558 356.681 98.3299 356.53 97.79 356.489C96.9953 356.609 96.2298 356.875 95.5318 357.274C95.0163 357.544 94.6973 357.667 94.6973 357.618C94.6973 357.569 94.9182 357.372 95.4091 357.053C95.7086 356.847 96.0201 356.658 96.3418 356.489C96.7874 356.235 97.2803 356.077 97.79 356.022C98.3989 356.038 98.9991 356.171 99.5572 356.415C100.219 356.673 100.814 357.075 101.3 357.593C101.768 358.25 102.083 359.003 102.223 359.797C102.363 360.591 102.325 361.406 102.11 362.183C101.714 363.665 101.172 365.104 100.49 366.479C99.9009 367.755 99.3363 368.933 98.8945 369.841C97.9373 371.707 97.4463 372.909 97.3482 372.885Z" fill="#EB996E"/>
<path d="M101.202 353.199C101.202 353.199 101.521 353.199 102.085 353.469C102.854 353.807 103.579 354.235 104.245 354.746C106.522 356.436 108.115 358.888 108.732 361.655C109.35 364.422 108.951 367.319 107.608 369.817C107.232 370.575 106.753 371.277 106.185 371.903C105.792 372.345 105.522 372.541 105.497 372.517C105.473 372.492 106.332 371.486 107.191 369.62C108.365 367.187 108.684 364.429 108.096 361.792C107.508 359.155 106.048 356.793 103.951 355.089C102.38 353.764 101.03 353.298 101.202 353.199Z" fill="#EB996E"/>
<path d="M64.5557 341.221C61.6071 346.373 58.2759 351.296 54.5903 355.949C57.5546 350.807 60.885 345.885 64.5557 341.221Z" fill="#EB996E"/>
<path d="M200.193 327.82L187.209 324.874L174.666 313.117C173.153 311.672 171.182 310.803 169.094 310.662L146.365 309.362C144.097 309.237 141.867 309.983 140.131 311.448L123.882 325.169L194.793 359.778L204.611 360.637L200.193 327.82Z" fill="#FFBE9D"/>
<path d="M160.97 321.757C160.97 321.757 159.276 321.561 156.576 321.217C153.116 320.614 149.557 320.979 146.291 322.272C144.551 323.119 142.906 324.147 141.382 325.341C139.959 326.421 138.658 327.427 137.529 328.188C136.628 328.802 135.684 329.351 134.706 329.832C134.361 330.02 133.988 330.153 133.602 330.225C133.602 330.225 135.099 329.44 137.259 327.771C138.339 326.961 139.713 325.93 141.039 324.825C142.546 323.574 144.193 322.504 145.948 321.634C147.781 320.818 149.759 320.375 151.765 320.333C153.41 320.297 155.054 320.42 156.674 320.702C158.024 320.923 159.129 321.168 159.841 321.364C160.235 321.434 160.616 321.567 160.97 321.757Z" fill="#EB996E"/>
<path d="M165.633 334.398C165.633 334.398 164.7 334.103 163.179 333.956C161.195 333.769 159.195 334.046 157.337 334.766C155.465 335.499 153.672 336.42 151.986 337.515C151.299 338.007 150.558 338.419 149.777 338.742C150.342 338.111 150.995 337.566 151.716 337.122C153.371 335.888 155.188 334.889 157.116 334.152C159.057 333.386 161.168 333.157 163.228 333.489C164.094 333.583 164.921 333.896 165.633 334.398Z" fill="#EB996E"/>
<path d="M194.867 336.509C194.719 336.509 192.878 333.882 190.473 330.667C188.927 328.777 187.477 326.811 186.128 324.776C189.677 328.171 192.63 332.137 194.867 336.509Z" fill="#EB996E"/>
<path d="M159.08 310.761L187.896 283.932C188.189 283.66 188.42 283.328 188.571 282.957C188.723 282.587 188.791 282.188 188.773 281.788C188.754 281.389 188.648 280.998 188.463 280.643C188.278 280.289 188.017 279.979 187.7 279.735C187.192 279.343 186.563 279.141 185.922 279.163C185.281 279.185 184.668 279.431 184.19 279.858L150.391 310.147" fill="#EF4444"/>
<g opacity="0.3">
<path d="M159.08 310.761L187.896 283.932C188.189 283.66 188.42 283.328 188.571 282.957C188.723 282.587 188.791 282.188 188.773 281.788C188.754 281.389 188.648 280.998 188.463 280.643C188.278 280.289 188.017 279.979 187.7 279.735C187.192 279.343 186.563 279.141 185.922 279.163C185.281 279.185 184.668 279.431 184.19 279.858L150.391 310.147" fill="black"/>
</g>
<path d="M153.508 60.3492C154.515 44.7875 164.873 25.7403 180.361 27.4094L228.715 39.682C230.98 39.9327 233.069 41.021 234.572 42.7332C236.075 44.4453 236.884 46.6576 236.839 48.9356L231.415 165.6L199.752 203.178C199.752 203.178 179.526 179.639 178.25 172.497C178.084 171.687 177.969 170.867 177.906 170.042C177.281 164.729 177.215 159.365 177.71 154.039C177.71 144.613 177.71 140.76 177.71 140.833C177.71 140.907 157.853 137.495 153.803 111.575C151.692 98.7626 152.379 77.6291 153.508 60.3492Z" fill="#FFBE9D"/>
<path d="M161.166 79.1509C161.165 80.0178 161.499 80.8515 162.098 81.4781C162.697 82.1047 163.515 82.4756 164.381 82.5136C164.804 82.5436 165.228 82.4899 165.63 82.3555C166.031 82.2211 166.403 82.0087 166.722 81.7304C167.041 81.4522 167.302 81.1135 167.49 80.7341C167.679 80.3546 167.79 79.9417 167.818 79.5191C167.825 78.6504 167.493 77.8131 166.892 77.1853C166.292 76.5574 165.471 76.1883 164.602 76.1564C164.179 76.123 163.754 76.1744 163.351 76.3075C162.948 76.4406 162.575 76.6529 162.255 76.9317C161.935 77.2106 161.674 77.5505 161.487 77.9316C161.3 78.3126 161.191 78.7272 161.166 79.1509Z" fill="#263238"/>
<path d="M158.073 71.3455C158.466 71.7873 160.994 69.9219 164.578 69.9464C168.161 69.971 170.763 71.7628 171.156 71.321C171.549 70.8792 170.935 70.3392 169.781 69.5046C168.245 68.4219 166.408 67.8468 164.529 67.8601C162.67 67.8595 160.858 68.4434 159.35 69.5292C158.245 70.3637 157.852 71.1492 158.073 71.3455Z" fill="#263238"/>
<path d="M196.339 79.1509C196.332 80.0156 196.661 80.8493 197.256 81.4765C197.851 82.1037 198.667 82.4755 199.53 82.5136C199.954 82.547 200.379 82.4956 200.782 82.3625C201.185 82.2294 201.558 82.0172 201.878 81.7383C202.198 81.4594 202.459 81.1195 202.646 80.7385C202.833 80.3574 202.942 79.9429 202.967 79.5191C202.98 78.6527 202.654 77.8155 202.057 77.1869C201.461 76.5583 200.642 76.1884 199.776 76.1564C199.352 76.1196 198.925 76.1686 198.521 76.3004C198.116 76.4322 197.742 76.6442 197.422 76.9237C197.101 77.2032 196.84 77.5445 196.654 77.9272C196.468 78.3098 196.361 78.7261 196.339 79.1509Z" fill="#263238"/>
<path d="M193.222 72.1064C193.64 72.5237 196.168 70.6828 199.727 70.6828C203.286 70.6828 205.937 72.4992 206.329 72.0574C206.722 71.6155 206.109 71.0755 204.955 70.241C203.399 69.1823 201.56 68.6177 199.678 68.621C197.82 68.6031 196.005 69.1793 194.499 70.2655C193.394 71.1246 193.026 71.9101 193.222 72.1064Z" fill="#263238"/>
<path d="M180.189 98.5908C178.3 98.0019 176.347 97.6474 174.371 97.5354C173.463 97.5354 172.604 97.2408 172.457 96.6272C172.379 95.6855 172.593 94.7426 173.071 93.9272C173.93 91.7181 174.838 89.4109 175.771 86.9809C179.551 77.1628 182.275 68.9401 181.882 68.7928C181.49 68.6455 178.102 76.5491 174.322 86.4409L171.721 93.4363C171.148 94.5387 170.983 95.8077 171.254 97.0199C171.384 97.342 171.586 97.6295 171.846 97.8595C172.106 98.0896 172.416 98.256 172.751 98.3454C173.254 98.4929 173.774 98.5673 174.298 98.5663C176.252 98.8291 178.232 98.8374 180.189 98.5908Z" fill="#263238"/>
<path d="M177.611 140.907C189.816 141.13 201.842 137.951 212.343 131.727C212.343 131.727 203.58 149.645 177.66 147.166L177.611 140.907Z" fill="#EB996E"/>
<path d="M181.686 107.206C182.358 106.339 183.241 105.658 184.251 105.229C185.26 104.799 186.363 104.635 187.454 104.752C188.247 104.827 189.017 105.061 189.717 105.441C190.417 105.82 191.033 106.337 191.529 106.961C192.004 107.555 192.285 108.282 192.334 109.041C192.382 109.801 192.195 110.557 191.799 111.207C191.226 111.851 190.472 112.308 189.636 112.518C188.8 112.728 187.92 112.682 187.11 112.385C185.423 111.788 183.872 110.862 182.545 109.661C182.136 109.37 181.786 109.003 181.514 108.581C181.381 108.385 181.31 108.154 181.31 107.918C181.31 107.682 181.381 107.451 181.514 107.255" fill="#EB996E"/>
<path d="M190.694 101.094C190.129 101.094 190.105 104.948 186.791 107.697C183.478 110.446 179.428 110.004 179.28 110.544C179.133 111.084 180.213 111.305 181.956 111.354C184.229 111.381 186.442 110.617 188.215 109.194C189.898 107.8 190.987 105.816 191.259 103.647C191.406 102.027 190.964 101.07 190.694 101.094Z" fill="#263238"/>
<path d="M191.627 65.7246C191.97 66.7064 195.554 66.24 199.751 66.7555C203.949 67.2709 207.336 68.4246 207.9 67.5655C208.146 67.1482 207.557 66.24 206.182 65.2828C204.374 64.1395 202.331 63.4198 200.206 63.1775C198.081 62.9352 195.928 63.1766 193.91 63.8837C192.265 64.5955 191.48 65.3564 191.627 65.7246Z" fill="#263238"/>
<path d="M259.2 109.145C252.475 111.919 246.485 91.2027 240.325 87.3491C234.164 83.4954 228.052 96.6272 227.463 89.3618C227.046 82.98 229.181 75.96 225.867 70.4619C221.474 63.0983 210.06 62.9265 205.617 55.7347C203.163 51.5374 203.556 45.9166 200.708 41.8666C197.861 37.8166 193.345 36.4666 188.657 35.7548C183.969 35.043 179.28 34.8712 175.132 32.7603C170.984 30.6494 167.769 25.8385 169.29 21.4694C188.736 20.0583 208.28 20.9647 227.512 24.1694C231.979 24.9303 236.692 25.9367 239.785 29.0785C242.877 32.2203 243.982 37.5466 244.694 42.2838C248.081 65.3319 255.715 86.0727 259.077 109.121" fill="#263238"/>
<path d="M153.09 63.7611C154.391 48.5675 163.522 29.3976 177.341 22.8195C191.16 16.2413 207.434 15.6032 220.026 24.2677C233.624 33.6194 237.207 49.3775 238.95 65.7983C240.693 82.2192 238.091 88.1346 234.262 104.212L232.617 139.582C242.116 150.406 254.536 138.158 256.353 137.299C258.169 136.44 264.87 125.026 265.827 123.308C275.645 104.801 260.476 102.076 263.078 91.6691C265.827 81.2192 265.147 70.1629 261.139 60.1284C259.175 55.4648 256.402 51.1202 254.831 46.3339C253.088 41.0812 252.843 35.3867 250.658 30.3058C248.019 24.6317 243.632 19.9521 238.14 16.9531C232.679 13.983 226.792 11.8719 220.688 10.6941C206.673 7.55229 197.37 2.15232 183.87 7.08593C170.37 12.0195 160.969 19.1131 154.686 36.7121C152.223 45.493 151.671 54.6997 153.066 63.712" fill="#EF4444"/>
<path d="M158.491 33.595C158.711 33.081 158.991 32.5949 159.325 32.1468C160.201 30.7987 161.177 29.5187 162.246 28.3177C166.134 23.8157 170.883 20.1355 176.212 17.4932C184.159 13.5063 193.129 12.0255 201.936 13.2469C212.769 14.78 222.691 20.1546 229.893 28.3914C236.717 36.8684 241.081 47.0573 242.509 57.8457C244.015 66.5001 244.337 75.319 243.467 84.0602C242.908 89.9926 241.391 95.7952 238.975 101.242C238.329 102.715 237.583 104.142 236.741 105.513C236.479 106.008 236.158 106.47 235.784 106.887C235.784 106.887 236.938 104.875 238.533 101.046C240.714 95.6148 242.079 89.8909 242.583 84.0602C243.302 75.4036 242.89 66.6902 241.356 58.1403C239.882 47.6179 235.581 37.6926 228.911 29.4223C221.889 21.4571 212.27 16.239 201.764 14.6951C193.176 13.4452 184.411 14.8049 176.605 18.5978C171.329 21.1248 166.581 24.6316 162.614 28.9314C159.939 31.705 158.589 33.6686 158.491 33.595Z" fill="#263238"/>
<path d="M258.734 133.298C258.734 133.421 257.85 134.623 255.666 135.753C252.782 137.336 249.491 138.02 246.216 137.716C242.951 137.376 239.859 136.078 237.33 133.985C235.44 132.365 234.679 130.991 234.876 130.893C235.072 130.794 236.029 131.899 237.968 133.347C240.452 135.14 243.367 136.242 246.416 136.539C249.465 136.837 252.538 136.32 255.322 135.041C257.433 134.083 258.611 133.151 258.734 133.298Z" fill="#263238"/>
<path d="M247.934 119.013C245.921 117.504 244.011 115.864 242.214 114.104C240.159 112.697 238.199 111.155 236.348 109.489C238.858 110.082 241.164 111.336 243.024 113.122C245.171 114.598 246.869 116.636 247.934 119.013Z" fill="#263238"/>
<path d="M250.045 99.499C249.658 97.2987 248.823 95.2015 247.59 93.3381C246.044 91.6998 244.171 90.4037 242.092 89.5336C242.092 89.3863 242.951 89.239 244.277 89.5336C245.979 90.0477 247.486 91.0662 248.597 92.4545C249.732 93.8553 250.416 95.5666 250.56 97.3635C250.511 98.7381 250.192 99.5235 250.045 99.499Z" fill="#263238"/>
<path d="M249.431 89.4109C249.112 89.5827 248.204 88.3063 246.707 87.2509C245.209 86.1954 243.786 85.6554 243.835 85.2872C243.884 84.9191 245.7 84.8945 247.467 86.22C249.235 87.5454 249.75 89.2881 249.431 89.4109Z" fill="#263238"/>
<path d="M229.402 92.4299C229.402 90.4908 231.66 85.9499 233.55 85.6554C238.656 84.87 247.835 85.3118 247.885 98.2226C247.885 115.895 230.212 112.336 230.163 111.821C230.114 111.305 229.377 99.0817 229.402 92.4299Z" fill="#FFBE9D"/>
<path d="M235.538 105.12C235.538 105.12 235.858 105.316 236.373 105.562C237.112 105.864 237.941 105.864 238.68 105.562C239.813 104.828 240.732 103.809 241.344 102.606C241.956 101.404 242.24 100.061 242.166 98.7135C242.191 97.2024 241.89 95.7036 241.282 94.3199C241.13 93.7483 240.837 93.2241 240.429 92.7953C240.022 92.3665 239.513 92.0467 238.95 91.8654C238.595 91.7688 238.217 91.8022 237.884 91.9597C237.551 92.1172 237.285 92.3884 237.134 92.7245C236.913 93.2154 237.011 93.559 236.938 93.5835C236.864 93.6081 236.545 93.3136 236.692 92.5772C236.777 92.1368 237.022 91.7433 237.379 91.4726C237.615 91.2832 237.887 91.1441 238.178 91.0639C238.469 90.9837 238.774 90.9641 239.073 91.0063C239.802 91.142 240.484 91.4642 241.052 91.9417C241.62 92.4192 242.054 93.0356 242.313 93.7308C243.072 95.2534 243.443 96.9396 243.393 98.6399C243.393 102.224 241.478 105.562 238.95 106.298C238.477 106.445 237.977 106.482 237.488 106.405C236.998 106.328 236.533 106.141 236.128 105.856C235.563 105.537 235.465 105.144 235.538 105.12Z" fill="#EB996E"/>
<path d="M220.026 103.132C220.026 103.132 199.285 121.762 179.28 119.013C159.276 116.264 152.281 103.132 152.281 103.132C152.281 103.132 149.114 122.253 157.975 131.727C167.793 142.233 172.285 145.129 193.124 141.545C213.963 137.962 225.229 114.349 225.229 114.349L220.026 103.132Z" fill="#F5F5F5"/>
<path d="M230.679 87.8154C229.418 90.779 227.767 93.5609 225.77 96.0872C224.124 98.8594 222.118 101.401 219.805 103.647C221.085 100.693 222.735 97.9139 224.714 95.3754C226.363 92.6052 228.368 90.0634 230.679 87.8154Z" fill="#F5F5F5"/>
<path d="M233.845 112.361C233.845 112.729 231.906 113.097 229.574 113.637C227.242 114.177 225.352 114.717 225.205 114.373C225.058 114.03 226.825 112.974 229.304 112.41C231.783 111.845 233.845 112.017 233.845 112.361Z" fill="#F5F5F5"/>
<path d="M215.239 112.213C214.683 113.024 214.041 113.773 213.325 114.447C211.449 116.347 209.439 118.111 207.311 119.724C200.351 125.327 191.922 128.804 183.036 129.739C178.573 130.096 174.084 129.545 169.84 128.119C165.596 126.693 161.685 124.422 158.343 121.442C156.348 119.636 154.687 117.492 153.434 115.11C152.93 114.26 152.55 113.342 152.305 112.385C154.09 115.501 156.332 118.33 158.957 120.78C165.642 126.389 174.263 129.147 182.962 128.462C191.617 127.503 199.856 124.24 206.82 119.012C212.196 115.11 215.068 112.042 215.239 112.213Z" fill="#263238"/>
<path d="M204.562 125.321C203.142 126.754 201.48 127.925 199.653 128.782C190.88 133.403 180.688 134.551 171.107 131.997C169.126 131.559 167.233 130.787 165.511 129.714C165.511 129.518 167.744 130.352 171.328 131.113C180.718 133.102 190.499 132 199.211 127.972C202.55 126.425 204.44 125.124 204.562 125.321Z" fill="#263238"/>
</g>
<g clip-path="url(#clip1_8991_15565)">
<path d="M145.212 174.902C145.212 174.902 127.441 186.807 122.777 208.333C119.095 225.245 109.032 314.541 109.032 314.541L91.4082 348.904L102.92 376.272C112.756 376.928 122.51 374.114 130.484 368.319L138.216 362.699L152.428 341.639L145.212 174.902Z" fill="#EBEBEB"/>
<path d="M326.184 272.396L340.666 269.942C340.666 269.942 310.107 185.58 291.944 177.332L278.738 171.27V171.024L256.966 162.139L231.488 152.787L229.549 152.075L230.359 152.861L179.305 156.125L175.329 159.144L149.139 172.841C149.139 172.841 137.48 176.719 126.901 190.489C116.322 204.259 100.883 274.605 100.883 274.605L135.124 288.694L143.641 345.541L121.894 454.056L308.438 450.497L268.11 337.785L274.369 281.503L326.184 272.396Z" fill="#EF4444"/>
<g opacity="0.3">
<path d="M140.45 366.061C159.526 375.019 180.193 380.092 201.248 380.985C208.612 381.279 216.638 380.985 222.922 376.935C225.369 374.962 227.999 373.228 230.776 371.756C234.753 370.16 239.22 370.921 243.466 371.388C253.363 372.464 263.372 371.808 273.043 369.449C274.528 369.222 275.917 368.575 277.044 367.583C277.573 367.068 277.881 366.369 277.903 365.632C277.926 364.895 277.662 364.178 277.167 363.631C276.401 363.139 275.5 362.899 274.59 362.944L141.456 356.292L140.45 366.061Z" fill="black"/>
</g>
<path d="M128.374 231.651C128.742 231.651 131.393 249.103 134.314 270.752C137.234 292.401 139.345 310.024 139.002 310.024C138.658 310.024 135.983 292.573 133.062 270.924C130.141 249.275 128.03 231.7 128.374 231.651Z" fill="#263238"/>
<path d="M198.303 216.776C197.599 216.254 196.964 215.643 196.413 214.96C195.235 213.733 193.615 211.941 191.504 209.707L184.484 201.804C181.882 198.809 178.937 195.545 176.188 191.838C173.513 188.365 171.393 184.499 169.904 180.376C168.738 176.961 168.287 173.344 168.579 169.748C168.759 167.335 169.418 164.981 170.518 162.826C170.881 162.013 171.388 161.273 172.015 160.641C170.596 163.508 169.762 166.629 169.561 169.821C169.427 173.276 169.952 176.724 171.107 179.983C172.627 183.963 174.719 187.701 177.317 191.078C180.017 194.735 182.913 197.999 185.49 201.018L192.289 209.118C194.204 211.426 195.726 213.316 196.781 214.641C197.36 215.299 197.87 216.015 198.303 216.776Z" fill="#263238"/>
<path d="M242.902 156.984C242.92 157.982 242.821 158.979 242.607 159.954C242.106 162.641 241.341 165.272 240.325 167.809C236.661 176.08 231.455 183.578 224.984 189.899C217.792 197.508 211.14 204.258 206.305 209.118L200.537 214.837C199.865 215.578 199.117 216.244 198.303 216.826C198.834 215.98 199.46 215.197 200.169 214.494L205.667 208.505L224.051 189.016C230.412 182.803 235.637 175.526 239.49 167.514C240.844 164.078 241.983 160.561 242.902 156.984Z" fill="#263238"/>
<path d="M272.847 281.724L278.763 314.737L200.046 326.322L204.587 362.551C204.587 362.551 301.811 367.878 312.586 365.497C326.16 362.502 336.542 346.229 336.199 322.469C336.076 313.068 331.707 294.291 326.16 272.421L272.847 281.724Z" fill="#EBEBEB"/>
<path d="M282.445 173.847C282.445 173.994 280.726 174.043 277.806 174.951C273.712 176.325 270.02 178.685 267.055 181.824C262.674 186.496 259.808 192.382 258.832 198.711C258.202 202.432 258.021 206.214 258.292 209.978C258.618 214.032 259.266 218.054 260.231 222.005C263.839 238.377 267.128 253.177 269.534 264.125C270.687 269.525 271.571 273.943 271.988 276.962C272.258 278.484 272.455 279.662 272.553 280.472C272.618 280.887 272.618 281.309 272.553 281.724C272.553 281.724 272.136 280.055 271.424 277.06C270.712 274.065 269.706 269.549 268.478 264.321C266.024 253.57 262.391 238.769 258.808 222.275C257.83 218.243 257.182 214.139 256.868 210.002C256.606 206.137 256.82 202.254 257.507 198.441C258.565 191.91 261.617 185.866 266.245 181.137C269.426 177.935 273.397 175.631 277.756 174.461C278.915 174.161 280.098 173.964 281.291 173.871C281.674 173.83 282.06 173.822 282.445 173.847Z" fill="#263238"/>
<path d="M8.66602 314.712L122.409 356.832L218.308 371.486L104.295 315.915L8.66602 314.712Z" fill="#263238"/>
<path d="M57.3392 360.269C56.4341 354.21 54.385 348.379 51.3011 343.087C50.6315 342.084 50.1029 340.994 49.7302 339.847C49.5576 339.267 49.5277 338.654 49.6431 338.06C49.7585 337.466 50.0157 336.908 50.3929 336.435C51.8411 334.864 54.5165 335.551 56.3083 336.754C59.9492 339.412 62.635 343.174 63.9665 347.48C65.2523 351.766 66.0752 356.176 66.421 360.637" fill="#FFBE9D"/>
<path d="M101.693 349.297H96.121C94.762 347.934 93.0693 346.953 91.212 346.449C90.515 346.334 89.7999 346.41 89.1429 346.67C88.4858 346.929 87.9115 347.362 87.4811 347.922C89.9356 343.749 92.7338 339.159 93.2492 337.908C94.2801 335.453 92.022 333.637 88.3402 333.637C84.6584 333.637 68.5812 356.439 68.5812 356.439C68.5812 356.439 78.5957 338.104 79.5529 335.281C82.0075 328.286 74.3248 327.77 71.5512 331.158C68.0903 335.33 54.1485 356.439 54.1485 356.439C53.4017 357.682 52.9396 359.076 52.7953 360.518C52.651 361.961 52.8282 363.418 53.314 364.785C55.1549 368.859 60.4567 367.239 60.4567 367.239C60.5298 368.428 60.9126 369.576 61.5671 370.571C62.2217 371.566 63.1251 372.372 64.1876 372.909C68.2621 375.167 73.6375 372.541 73.6375 372.541L94.452 377.229L101.987 376.468C107.111 375.954 111.915 373.742 115.637 370.184C119.359 366.626 121.786 361.927 122.532 356.832L101.693 349.297Z" fill="#FFBE9D"/>
<path d="M87.653 347.603C85.8985 351.043 83.8539 354.328 81.5413 357.421C79.7249 360.023 78.0804 362.33 76.8286 364.048C76.2169 364.987 75.5183 365.867 74.7422 366.675C75.2206 365.656 75.796 364.686 76.4604 363.778C77.5895 362.036 79.2094 359.655 81.0013 357.053C82.7931 354.451 84.4376 352.144 85.6403 350.401L87.0885 348.413C87.4567 347.824 87.604 347.603 87.653 347.603Z" fill="#EB996E"/>
<path d="M86.4258 370.798C86.9236 369.61 87.5404 368.475 88.2667 367.411C89.4939 365.349 91.2367 362.502 93.1757 359.459C94.133 357.912 95.0412 356.439 95.8021 355.089C96.4629 353.909 96.6305 352.515 96.2684 351.211C95.8971 349.999 95.288 348.872 94.4766 347.898C94.4766 347.898 94.8448 348.07 95.2866 348.585C95.9374 349.287 96.4236 350.126 96.7103 351.04C96.9423 351.739 97.0292 352.479 96.9659 353.213C96.9026 353.947 96.6904 354.661 96.3421 355.31C95.5812 356.734 94.673 358.207 93.7157 359.753C91.8012 362.87 89.9849 365.619 88.6594 367.608C87.9827 368.717 87.2366 369.783 86.4258 370.798Z" fill="#EB996E"/>
<path d="M97.3482 372.885C97.5695 371.76 97.941 370.67 98.4527 369.645L99.95 366.258C100.572 364.894 101.081 363.482 101.472 362.036C101.66 361.353 101.698 360.637 101.584 359.938C101.47 359.239 101.205 358.573 100.809 357.986C100.42 357.51 99.9117 357.146 99.3363 356.93C98.8558 356.681 98.3299 356.53 97.79 356.489C96.9953 356.609 96.2298 356.875 95.5318 357.274C95.0163 357.544 94.6973 357.667 94.6973 357.618C94.6973 357.569 94.9182 357.372 95.4091 357.053C95.7086 356.847 96.0201 356.658 96.3418 356.489C96.7874 356.235 97.2803 356.077 97.79 356.022C98.3989 356.038 98.9991 356.171 99.5572 356.415C100.219 356.673 100.814 357.075 101.3 357.593C101.768 358.25 102.083 359.003 102.223 359.797C102.363 360.591 102.325 361.406 102.11 362.183C101.714 363.665 101.172 365.104 100.49 366.479C99.9009 367.755 99.3363 368.933 98.8945 369.841C97.9373 371.707 97.4463 372.909 97.3482 372.885Z" fill="#EB996E"/>
<path d="M101.202 353.199C101.202 353.199 101.521 353.199 102.085 353.469C102.854 353.807 103.579 354.235 104.245 354.746C106.522 356.436 108.115 358.888 108.732 361.655C109.35 364.422 108.951 367.319 107.608 369.817C107.232 370.575 106.753 371.277 106.185 371.903C105.792 372.345 105.522 372.541 105.497 372.517C105.473 372.492 106.332 371.486 107.191 369.62C108.365 367.187 108.684 364.429 108.096 361.792C107.508 359.155 106.048 356.793 103.951 355.089C102.38 353.764 101.03 353.298 101.202 353.199Z" fill="#EB996E"/>
<path d="M64.5557 341.221C61.6071 346.373 58.2759 351.296 54.5903 355.949C57.5546 350.807 60.885 345.885 64.5557 341.221Z" fill="#EB996E"/>
<path d="M200.193 327.82L187.209 324.874L174.666 313.117C173.153 311.672 171.182 310.803 169.094 310.662L146.365 309.362C144.097 309.237 141.867 309.983 140.131 311.448L123.882 325.169L194.793 359.778L204.611 360.637L200.193 327.82Z" fill="#FFBE9D"/>
<path d="M160.97 321.757C160.97 321.757 159.276 321.561 156.576 321.217C153.116 320.614 149.557 320.979 146.291 322.272C144.551 323.119 142.906 324.147 141.382 325.341C139.959 326.421 138.658 327.427 137.529 328.188C136.628 328.802 135.684 329.351 134.706 329.832C134.361 330.02 133.988 330.153 133.602 330.225C133.602 330.225 135.099 329.44 137.259 327.771C138.339 326.961 139.713 325.93 141.039 324.825C142.546 323.574 144.193 322.504 145.948 321.634C147.781 320.818 149.759 320.375 151.765 320.333C153.41 320.297 155.054 320.42 156.674 320.702C158.024 320.923 159.129 321.168 159.841 321.364C160.235 321.434 160.616 321.567 160.97 321.757Z" fill="#EB996E"/>
<path d="M165.633 334.398C165.633 334.398 164.7 334.103 163.179 333.956C161.195 333.769 159.195 334.046 157.337 334.766C155.465 335.499 153.672 336.42 151.986 337.515C151.299 338.007 150.558 338.419 149.777 338.742C150.342 338.111 150.995 337.566 151.716 337.122C153.371 335.888 155.188 334.889 157.116 334.152C159.057 333.386 161.168 333.157 163.228 333.489C164.094 333.583 164.921 333.896 165.633 334.398Z" fill="#EB996E"/>
<path d="M194.867 336.509C194.719 336.509 192.878 333.882 190.473 330.667C188.927 328.777 187.477 326.811 186.128 324.776C189.677 328.171 192.63 332.137 194.867 336.509Z" fill="#EB996E"/>
<path d="M159.08 310.761L187.896 283.932C188.189 283.66 188.42 283.328 188.571 282.957C188.723 282.587 188.791 282.188 188.773 281.788C188.754 281.389 188.648 280.998 188.463 280.643C188.278 280.289 188.017 279.979 187.7 279.735C187.192 279.343 186.563 279.141 185.922 279.163C185.281 279.185 184.668 279.431 184.19 279.858L150.391 310.147" fill="#EF4444"/>
<g opacity="0.3">
<path d="M159.08 310.761L187.896 283.932C188.189 283.66 188.42 283.328 188.571 282.957C188.723 282.587 188.791 282.188 188.773 281.788C188.754 281.389 188.648 280.998 188.463 280.643C188.278 280.289 188.017 279.979 187.7 279.735C187.192 279.343 186.563 279.141 185.922 279.163C185.281 279.185 184.668 279.431 184.19 279.858L150.391 310.147" fill="black"/>
</g>
<path d="M153.68 55.0229C152.421 49.6971 152.453 44.1478 153.772 38.8368C155.091 33.5257 157.66 28.6065 161.264 24.4886C166.953 18.4901 174.191 14.183 182.177 12.0441C192.756 8.54765 204.217 8.80774 214.626 12.7804C224.812 17.0759 233.084 26.5749 234.262 37.5467C234.777 42.4557 233.869 47.733 235.465 52.4948C236.49 54.4211 236.925 56.6064 236.717 58.7784C236.378 59.7203 235.773 60.5439 234.976 61.1494C234.179 61.7549 233.223 62.1164 232.225 62.1902C230.225 62.3016 228.23 61.8958 226.432 61.012C220.336 57.9891 214.773 53.9931 209.962 49.1812" fill="#263238"/>
<path d="M153.508 60.3492C154.515 44.7875 164.873 25.7403 180.361 27.4094L228.715 39.682C230.98 39.9327 233.069 41.021 234.572 42.7332C236.075 44.4453 236.884 46.6576 236.839 48.9356L231.415 165.6L199.752 203.178C199.752 203.178 179.526 179.639 178.25 172.497C178.084 171.687 177.969 170.867 177.906 170.042C177.281 164.729 177.215 159.365 177.71 154.039C177.71 144.613 177.71 140.76 177.71 140.833C177.71 140.907 157.853 137.495 153.803 111.575C151.692 98.7626 152.379 77.6291 153.508 60.3492Z" fill="#FFBE9D"/>
<path d="M161.166 79.1509C161.165 80.0178 161.499 80.8515 162.098 81.4781C162.697 82.1047 163.515 82.4756 164.381 82.5136C164.804 82.5436 165.228 82.4899 165.63 82.3555C166.031 82.2211 166.403 82.0087 166.722 81.7304C167.041 81.4522 167.302 81.1135 167.49 80.7341C167.679 80.3546 167.79 79.9417 167.818 79.5191C167.825 78.6504 167.493 77.8131 166.892 77.1853C166.292 76.5574 165.471 76.1883 164.602 76.1564C164.179 76.123 163.754 76.1744 163.351 76.3075C162.948 76.4406 162.575 76.6529 162.255 76.9317C161.935 77.2106 161.674 77.5505 161.487 77.9316C161.3 78.3126 161.191 78.7272 161.166 79.1509Z" fill="#263238"/>
<path d="M158.073 71.3455C158.466 71.7873 160.994 69.9219 164.578 69.9464C168.161 69.971 170.763 71.7628 171.156 71.321C171.549 70.8792 170.935 70.3392 169.781 69.5046C168.245 68.4219 166.408 67.8468 164.529 67.8601C162.67 67.8595 160.858 68.4434 159.35 69.5292C158.245 70.3637 157.852 71.1492 158.073 71.3455Z" fill="#263238"/>
<path d="M196.339 79.1509C196.332 80.0156 196.661 80.8493 197.256 81.4765C197.851 82.1037 198.667 82.4755 199.53 82.5136C199.954 82.547 200.379 82.4956 200.782 82.3625C201.185 82.2294 201.558 82.0172 201.878 81.7383C202.198 81.4594 202.459 81.1195 202.646 80.7385C202.833 80.3574 202.942 79.9429 202.967 79.5191C202.98 78.6527 202.654 77.8155 202.057 77.1869C201.461 76.5583 200.642 76.1884 199.776 76.1564C199.352 76.1196 198.925 76.1686 198.521 76.3004C198.116 76.4322 197.742 76.6442 197.422 76.9237C197.101 77.2032 196.84 77.5445 196.654 77.9272C196.468 78.3098 196.361 78.7261 196.339 79.1509Z" fill="#263238"/>
<path d="M193.222 72.1064C193.64 72.5237 196.168 70.6828 199.727 70.6828C203.286 70.6828 205.937 72.4992 206.329 72.0574C206.722 71.6155 206.109 71.0755 204.955 70.241C203.399 69.1823 201.56 68.6177 199.678 68.621C197.82 68.6031 196.005 69.1793 194.499 70.2655C193.394 71.1246 193.026 71.9101 193.222 72.1064Z" fill="#263238"/>
<path d="M180.189 98.5908C178.3 98.0019 176.347 97.6474 174.371 97.5354C173.463 97.5354 172.604 97.2408 172.457 96.6272C172.379 95.6855 172.593 94.7426 173.071 93.9272C173.93 91.7181 174.838 89.4109 175.771 86.9809C179.551 77.1628 182.275 68.9401 181.882 68.7928C181.49 68.6455 178.102 76.5491 174.322 86.4409L171.721 93.4363C171.148 94.5387 170.983 95.8077 171.254 97.0199C171.384 97.342 171.586 97.6295 171.846 97.8595C172.106 98.0896 172.416 98.256 172.751 98.3454C173.254 98.4929 173.774 98.5673 174.298 98.5663C176.252 98.8291 178.232 98.8374 180.189 98.5908Z" fill="#263238"/>
<path d="M177.611 140.907C189.816 141.13 201.842 137.951 212.343 131.727C212.343 131.727 203.58 149.645 177.66 147.166L177.611 140.907Z" fill="#EB996E"/>
<path d="M181.686 107.206C182.358 106.339 183.241 105.658 184.251 105.229C185.26 104.799 186.363 104.635 187.454 104.752C188.247 104.827 189.017 105.061 189.717 105.441C190.417 105.82 191.033 106.337 191.529 106.961C192.004 107.555 192.285 108.282 192.334 109.041C192.382 109.801 192.195 110.557 191.799 111.207C191.226 111.851 190.472 112.308 189.636 112.518C188.8 112.728 187.92 112.682 187.11 112.385C185.423 111.788 183.872 110.862 182.545 109.661C182.136 109.37 181.786 109.003 181.514 108.581C181.381 108.385 181.31 108.154 181.31 107.918C181.31 107.682 181.381 107.451 181.514 107.255" fill="#EB996E"/>
<path d="M190.694 101.094C190.129 101.094 190.105 104.948 186.791 107.697C183.478 110.446 179.428 110.004 179.28 110.544C179.133 111.084 180.213 111.305 181.956 111.354C184.229 111.381 186.442 110.617 188.215 109.194C189.898 107.8 190.987 105.816 191.259 103.647C191.406 102.027 190.964 101.07 190.694 101.094Z" fill="#263238"/>
<path d="M191.627 65.7246C191.97 66.7064 195.554 66.24 199.751 66.7555C203.949 67.2709 207.336 68.4246 207.9 67.5655C208.146 67.1482 207.557 66.24 206.182 65.2828C204.374 64.1395 202.331 63.4198 200.206 63.1775C198.081 62.9352 195.928 63.1766 193.91 63.8837C192.265 64.5955 191.48 65.3564 191.627 65.7246Z" fill="#263238"/>
<path d="M159.399 61.012C160.037 61.822 162.492 61.012 165.462 61.012C168.432 61.012 170.935 61.5766 171.5 60.7175C171.77 60.3248 171.377 59.4902 170.272 58.7293C168.813 57.7864 167.1 57.3151 165.363 57.3793C163.6 57.4041 161.886 57.9696 160.454 58.9993C159.473 59.7602 159.129 60.5948 159.399 61.012Z" fill="#263238"/>
<path d="M259.2 109.145C252.475 111.919 246.485 91.2027 240.325 87.3491C234.164 83.4954 228.052 96.6272 227.463 89.3618C227.046 82.98 229.181 75.96 225.867 70.4619C221.474 63.0983 210.06 62.9265 205.617 55.7347C203.163 51.5374 203.556 45.9166 200.708 41.8666C197.861 37.8166 193.345 36.4666 188.657 35.7548C183.969 35.043 179.28 34.8712 175.132 32.7603C170.984 30.6494 167.769 25.8385 169.29 21.4694C188.736 20.0583 208.28 20.9647 227.512 24.1694C231.979 24.9303 236.692 25.9367 239.785 29.0785C242.877 32.2203 243.982 37.5466 244.694 42.2838C248.081 65.3319 255.715 86.0727 259.077 109.121" fill="#263238"/>
<path d="M153.09 63.7611C154.391 48.5675 163.522 29.3976 177.341 22.8195C191.16 16.2413 207.434 15.6032 220.026 24.2677C233.624 33.6194 237.207 49.3775 238.95 65.7983C240.693 82.2192 238.091 88.1346 234.262 104.212L232.617 139.582C242.116 150.406 254.536 138.158 256.353 137.299C258.169 136.44 264.87 125.026 265.827 123.308C275.645 104.801 260.476 102.076 263.078 91.6691C265.827 81.2192 265.147 70.1629 261.139 60.1284C259.175 55.4648 256.402 51.1202 254.831 46.3339C253.088 41.0812 252.843 35.3867 250.658 30.3058C248.019 24.6317 243.632 19.9521 238.14 16.9531C232.679 13.983 226.792 11.8719 220.688 10.6941C206.673 7.55229 197.37 2.15232 183.87 7.08593C170.37 12.0195 160.969 19.1131 154.686 36.7121C152.223 45.493 151.671 54.6997 153.066 63.712" fill="#EF4444"/>
<path d="M158.491 33.595C158.711 33.081 158.991 32.5949 159.325 32.1468C160.201 30.7987 161.177 29.5187 162.246 28.3177C166.134 23.8157 170.883 20.1355 176.212 17.4932C184.159 13.5063 193.129 12.0255 201.936 13.2469C212.769 14.78 222.691 20.1546 229.893 28.3914C236.717 36.8684 241.081 47.0573 242.509 57.8457C244.015 66.5001 244.337 75.319 243.467 84.0602C242.908 89.9926 241.391 95.7952 238.975 101.242C238.329 102.715 237.583 104.142 236.741 105.513C236.479 106.008 236.158 106.47 235.784 106.887C235.784 106.887 236.938 104.875 238.533 101.046C240.714 95.6148 242.079 89.8909 242.583 84.0602C243.302 75.4036 242.89 66.6902 241.356 58.1403C239.882 47.6179 235.581 37.6926 228.911 29.4223C221.889 21.4571 212.27 16.239 201.764 14.6951C193.176 13.4452 184.411 14.8049 176.605 18.5978C171.329 21.1248 166.581 24.6316 162.614 28.9314C159.939 31.705 158.589 33.6686 158.491 33.595Z" fill="#263238"/>
<path d="M258.734 133.298C258.734 133.421 257.85 134.623 255.666 135.753C252.782 137.336 249.491 138.02 246.216 137.716C242.951 137.376 239.859 136.078 237.33 133.985C235.44 132.365 234.679 130.991 234.876 130.893C235.072 130.794 236.029 131.899 237.968 133.347C240.452 135.14 243.367 136.242 246.416 136.539C249.465 136.837 252.538 136.32 255.322 135.041C257.433 134.083 258.611 133.151 258.734 133.298Z" fill="#263238"/>
<path d="M247.934 119.013C245.921 117.504 244.011 115.864 242.214 114.104C240.159 112.697 238.199 111.155 236.348 109.489C238.858 110.082 241.164 111.336 243.024 113.122C245.171 114.598 246.869 116.636 247.934 119.013Z" fill="#263238"/>
<path d="M250.045 99.499C249.658 97.2987 248.823 95.2015 247.59 93.3381C246.044 91.6998 244.171 90.4037 242.092 89.5336C242.092 89.3863 242.951 89.239 244.277 89.5336C245.979 90.0477 247.486 91.0662 248.597 92.4545C249.732 93.8553 250.416 95.5666 250.56 97.3635C250.511 98.7381 250.192 99.5235 250.045 99.499Z" fill="#263238"/>
<path d="M249.431 89.4109C249.112 89.5827 248.204 88.3063 246.707 87.2509C245.209 86.1954 243.786 85.6554 243.835 85.2872C243.884 84.9191 245.7 84.8945 247.467 86.22C249.235 87.5454 249.75 89.2881 249.431 89.4109Z" fill="#263238"/>
<path d="M234.458 25.3968C234.581 25.7404 233.55 26.4031 232.372 27.2867C231.194 28.1704 230.261 28.9804 229.917 28.7595C229.574 28.5386 230.212 27.2868 231.562 26.3049C232.912 25.3231 234.36 25.0777 234.458 25.3968Z" fill="#263238"/>
<path d="M230.727 24.2675C230.948 24.5375 230.482 25.3475 229.647 26.0593C228.813 26.7712 227.954 27.1639 227.733 26.8939C227.512 26.6239 227.978 25.8139 228.813 25.1021C229.647 24.3903 230.482 23.9975 230.727 24.2675Z" fill="#263238"/>
<path d="M229.402 92.4299C229.402 90.4908 231.66 85.9499 233.55 85.6554C238.656 84.87 247.835 85.3118 247.885 98.2226C247.885 115.895 230.212 112.336 230.163 111.821C230.114 111.305 229.377 99.0817 229.402 92.4299Z" fill="#FFBE9D"/>
<path d="M235.538 105.12C235.538 105.12 235.858 105.316 236.373 105.562C237.112 105.864 237.941 105.864 238.68 105.562C239.813 104.828 240.732 103.809 241.344 102.606C241.956 101.404 242.24 100.061 242.166 98.7135C242.191 97.2024 241.89 95.7036 241.282 94.3199C241.13 93.7483 240.837 93.2241 240.429 92.7953C240.022 92.3665 239.513 92.0467 238.95 91.8654C238.595 91.7688 238.217 91.8022 237.884 91.9597C237.551 92.1172 237.285 92.3884 237.134 92.7245C236.913 93.2154 237.011 93.559 236.938 93.5835C236.864 93.6081 236.545 93.3136 236.692 92.5772C236.777 92.1368 237.022 91.7433 237.379 91.4726C237.615 91.2832 237.887 91.1441 238.178 91.0639C238.469 90.9837 238.774 90.9641 239.073 91.0063C239.802 91.142 240.484 91.4642 241.052 91.9417C241.62 92.4192 242.054 93.0356 242.313 93.7308C243.072 95.2534 243.443 96.9396 243.393 98.6399C243.393 102.224 241.478 105.562 238.95 106.298C238.477 106.445 237.977 106.482 237.488 106.405C236.998 106.328 236.533 106.141 236.128 105.856C235.563 105.537 235.465 105.144 235.538 105.12Z" fill="#EB996E"/>
<path d="M220.026 103.132C220.026 103.132 199.285 121.762 179.28 119.013C159.276 116.264 152.281 103.132 152.281 103.132C152.281 103.132 149.114 122.253 157.975 131.727C167.793 142.233 172.285 145.129 193.124 141.545C213.963 137.962 225.229 114.349 225.229 114.349L220.026 103.132Z" fill="#F5F5F5"/>
<path d="M230.679 87.8154C229.418 90.779 227.767 93.5609 225.77 96.0872C224.124 98.8594 222.118 101.401 219.805 103.647C221.085 100.693 222.735 97.9139 224.714 95.3754C226.363 92.6052 228.368 90.0634 230.679 87.8154Z" fill="#F5F5F5"/>
<path d="M233.845 112.361C233.845 112.729 231.906 113.097 229.574 113.637C227.242 114.177 225.352 114.717 225.205 114.373C225.058 114.03 226.825 112.974 229.304 112.41C231.783 111.845 233.845 112.017 233.845 112.361Z" fill="#F5F5F5"/>
<path d="M215.239 112.213C214.683 113.024 214.041 113.773 213.325 114.447C211.449 116.347 209.439 118.111 207.311 119.724C200.351 125.327 191.922 128.804 183.036 129.739C178.573 130.096 174.084 129.545 169.84 128.119C165.596 126.693 161.685 124.422 158.343 121.442C156.348 119.636 154.687 117.492 153.434 115.11C152.93 114.26 152.55 113.342 152.305 112.385C154.09 115.501 156.332 118.33 158.957 120.78C165.642 126.389 174.263 129.147 182.962 128.462C191.617 127.503 199.856 124.24 206.82 119.012C212.196 115.11 215.068 112.042 215.239 112.213Z" fill="#263238"/>
<path d="M204.562 125.321C203.142 126.754 201.48 127.925 199.653 128.782C190.88 133.403 180.688 134.551 171.107 131.997C169.126 131.559 167.233 130.787 165.511 129.714C165.511 129.518 167.744 130.352 171.328 131.113C180.718 133.102 190.499 132 199.211 127.972C202.55 126.425 204.44 125.124 204.562 125.321Z" fill="#263238"/>
<path d="M76.9341 0H76.1616H73.8912C73.4025 0 72.8349 0 72.22 0L70.2335 0.283791L67.9001 0.788308L65.2829 1.43472C60.8073 2.57053 56.547 4.42909 52.67 6.93711C46.923 10.5904 42.0881 15.5103 38.5356 21.3201C34.983 27.1299 32.807 33.6756 32.174 40.456C31.9972 42.4901 31.9551 44.5336 32.0479 46.5732C32.0479 47.598 32.0478 48.6544 32.2528 49.7265L32.7258 52.8797C33.5237 57.2113 34.9526 61.4024 36.9669 65.3192C39.1219 69.4067 41.8568 73.1612 45.0865 76.4659C48.5341 79.8478 52.4793 82.6818 56.785 84.8692C61.2451 87.1611 66.0758 88.645 71.0533 89.2522C72.312 89.4368 73.5811 89.5422 74.853 89.5676C76.13 89.5676 77.4071 89.6937 78.6999 89.5676C81.2922 89.4528 83.8707 89.1258 86.4096 88.5901C91.873 87.408 97.0694 85.2215 101.734 82.1417H101.277L116.886 88.4482L117.816 88.8265L117.548 87.8648L112.991 71.1842V71.5941C117.226 65.9752 120.082 59.441 121.332 52.5171C121.92 49.2942 122.121 46.0126 121.931 42.7421C121.906 41.1564 121.758 39.5751 121.489 38.0122C121.363 37.2397 121.253 36.4356 121.142 35.7261C121.032 35.0166 120.764 34.2441 120.591 33.5189C117.946 23.2486 111.731 14.2556 103.059 8.1511C99.8736 5.8511 96.3815 4.00952 92.6845 2.68025L90.3511 1.82887L88.1281 1.27706L86.0943 0.788308C85.4478 0.662179 84.8172 0.599114 84.2338 0.504517C83.0514 0.346855 82.0108 0.157661 81.0806 0.110363L78.7788 0.031533H77.3756L78.7788 0.141896L81.0491 0.299555C81.9478 0.299555 82.9883 0.599117 84.2023 0.772545C92.675 2.24056 100.539 6.13741 106.839 11.9897C113.139 17.842 117.604 25.3979 119.692 33.7396C119.865 34.4648 120.086 35.1743 120.228 35.9153L120.559 38.1541C120.807 39.682 120.944 41.2259 120.969 42.7736C121.149 45.9826 120.937 49.2016 120.338 52.3594C119.099 59.1389 116.285 65.5327 112.124 71.0266L111.982 71.2V71.4365C113.449 76.8285 114.978 82.4728 116.539 88.1328L117.201 87.5495L101.577 81.243L101.34 81.1484L101.119 81.2903C96.5553 84.303 91.4712 86.4415 86.1258 87.5968C83.6512 88.1298 81.1349 88.4463 78.6053 88.5428C77.3503 88.6138 76.0923 88.6138 74.8372 88.5428C73.5911 88.5243 72.3478 88.4189 71.1164 88.2274C66.2562 87.6404 61.5379 86.1993 57.1791 83.9706C52.9555 81.8437 49.0885 79.0725 45.7171 75.7564C42.5439 72.5249 39.8567 68.8498 37.7394 64.8462C35.7444 61.0186 34.3259 56.9171 33.5299 52.6748C33.3722 51.65 33.2146 50.6094 33.0569 49.6003C32.8992 48.5913 32.9308 47.535 32.8519 46.4471C32.7489 44.4502 32.7805 42.4486 32.9465 40.456C33.542 33.786 35.6471 27.3389 39.1024 21.6027C42.5578 15.8665 47.2729 10.9916 52.8907 7.34703C56.7058 4.81467 60.9071 2.91905 65.3302 1.73428L67.9001 1.05633L70.265 0.788308L72.2516 0.45722C72.8665 0.45722 73.4183 0.378386 73.907 0.331088L76.1616 0.173429L76.9341 0Z" fill="#263238"/>
<path d="M99.8986 38.6389C99.2291 33.2087 94.6358 28.1443 89.1623 28.1443C85.9327 28.1443 82.8643 29.8304 80.6576 32.1859C79.8743 32.9848 79.1512 33.8405 78.4942 34.746C78.0318 33.7294 77.493 32.7492 76.8825 31.814C75.184 29.0679 72.5062 26.8054 69.3386 26.1731C63.9766 25.1007 58.4783 29.1547 56.7488 34.3493C55.0194 39.5439 56.4575 45.3646 59.3027 50.0384C62.148 54.7123 67.0388 60.8181 76.0395 63.8493C82.2383 63.0497 90.5818 57.539 94.2887 53.516C97.9956 49.493 100.549 44.0628 99.8986 38.6389Z" fill="#EF4444"/>
<path d="M97.9025 48.3834C97.8428 48.3902 97.7824 48.3902 97.7227 48.3834L97.1958 48.3462L95.1688 48.1789L87.7303 47.497L87.8666 47.4164C86.9678 49.7534 85.9202 52.4932 84.7672 55.4749L84.5813 55.9584L84.4573 55.4501C83.5089 51.5324 82.4551 47.1375 81.3579 42.507C81.017 41.0751 80.676 39.6617 80.3475 38.2856L80.6637 38.3476L74.9856 46.1581L74.9298 46.2325H74.8368L61.7697 44.8687L58.0505 44.4596L57.0711 44.3356C56.9573 44.3295 56.8448 44.3087 56.7363 44.2736C56.8497 44.2627 56.9639 44.2627 57.0773 44.2736L58.0567 44.3418L61.7759 44.6642L74.8554 45.9039L74.7128 45.9659L80.3661 38.143L80.5893 37.8269L80.676 38.205C81.0108 39.5812 81.3455 40.9883 81.6927 42.4264L84.792 55.3757H84.4821C85.6537 52.3817 86.7261 49.648 87.6435 47.3172L87.6745 47.2243H87.7737L95.2122 48.0177L97.2268 48.2533L97.7537 48.3215C97.8058 48.3356 97.8558 48.3564 97.9025 48.3834Z" fill="#FAFAFA"/>
</g>
<defs>
<clipPath id="clip0_8991_15565">
<rect x="32" y="66.6667" width="333.333" height="333.333" rx="166.667" fill="white"/>
</clipPath>
<clipPath id="clip1_8991_15565">
<rect width="366" height="378" fill="white"/>
</clipPath>
</defs>
</svg>
