<svg width="334" height="400" viewBox="0 0 334 400" fill="none" xmlns="http://www.w3.org/2000/svg">
<g clip-path="url(#clip0_8981_10717)">
<rect y="66.6667" width="333.333" height="333.333" rx="166.667" fill="#EFF6FF"/>
<path d="M129.298 77.5224C128.744 77.307 107.286 71.6772 108.579 93.3811C109.871 115.085 131.39 109.301 131.405 108.671C131.421 108.04 129.298 77.5224 129.298 77.5224Z" fill="#FFBE9D"/>
<path d="M124.283 100.857C124.176 100.78 123.914 101.134 123.299 101.472C122.42 101.912 121.404 101.989 120.469 101.687C118.131 100.995 115.977 97.4727 115.639 93.5657C115.471 91.7382 115.702 89.8961 116.315 88.1667C116.478 87.4749 116.806 86.8331 117.273 86.2971C117.739 85.761 118.329 85.3467 118.992 85.0903C119.42 84.9491 119.884 84.9626 120.302 85.1285C120.721 85.2943 121.069 85.602 121.284 85.9978C121.607 86.5823 121.499 87.0284 121.607 87.0592C121.714 87.0899 122.053 86.6592 121.822 85.7825C121.674 85.2494 121.341 84.7861 120.884 84.475C120.576 84.2658 120.23 84.12 119.866 84.0461C119.501 83.9721 119.126 83.9715 118.761 84.0443C117.882 84.2741 117.077 84.7258 116.422 85.356C115.768 85.9862 115.286 86.7739 115.023 87.6437C114.198 89.5831 113.87 91.6981 114.07 93.7964C114.47 98.1649 116.961 102.118 120.146 102.841C120.74 102.976 121.356 102.975 121.95 102.84C122.544 102.704 123.099 102.436 123.576 102.057C124.268 101.38 124.36 100.887 124.283 100.857Z" fill="#EB996E"/>
<path d="M183.473 0.0131226C194.501 0.0131226 205.73 0.0131145 219.528 7.22722C228.234 11.8418 233.648 18.9636 238.186 27.6697C241.805 34.7479 243.573 42.6275 243.324 50.5733C242.924 58.0797 242.893 63.3249 239.893 70.216" fill="#263238"/>
<path d="M179.058 1.72051C186.81 1.16817 194.594 2.16721 201.955 4.65919C209.316 7.15117 216.107 11.086 221.929 16.2336C227.751 21.3812 232.488 27.6382 235.863 34.6385C239.238 41.6388 241.184 49.2419 241.585 57.003C243.001 84.1828 244.247 113.578 243.954 128.375C243.308 160.154 211.483 164.845 211.483 164.845C211.483 164.845 212.191 174.259 213.021 185.949C213.391 191.534 212.638 197.136 210.806 202.424C208.974 207.713 206.1 212.58 202.354 216.739C198.608 220.898 194.067 224.263 188.998 226.636C183.93 229.01 178.437 230.343 172.844 230.557C167.349 230.767 161.866 229.891 156.709 227.98C151.552 226.07 146.823 223.161 142.792 219.421C138.76 215.681 135.505 211.182 133.214 206.183C130.922 201.184 129.638 195.783 129.436 190.287L124.714 62.2174C124.138 47.0389 129.494 32.2325 139.646 20.9344C149.799 9.63634 163.951 2.7341 179.104 1.68974L179.058 1.72051Z" fill="#FFBE9D"/>
<path d="M211.483 164.845C211.483 164.845 191.948 165.861 170.721 152.278C170.721 152.278 180.335 175.351 212.052 172.798L211.483 164.845Z" fill="#EB996E"/>
<path d="M229.403 74.6767C229.428 75.871 228.979 77.0265 228.155 77.8911C227.331 78.7557 226.198 79.259 225.004 79.2913C224.428 79.3308 223.851 79.2549 223.306 79.0679C222.76 78.8809 222.258 78.5867 221.828 78.2026C221.398 77.8184 221.049 77.3521 220.802 76.8311C220.555 76.3101 220.414 75.745 220.389 75.169C220.388 73.9815 220.844 72.8393 221.664 71.9798C222.483 71.1203 223.602 70.6098 224.788 70.5544C225.363 70.517 225.94 70.5944 226.484 70.7822C227.029 70.9699 227.53 71.2643 227.96 71.648C228.39 72.0318 228.738 72.4972 228.986 73.0172C229.234 73.5372 229.376 74.1014 229.403 74.6767Z" fill="#263238"/>
<path d="M233.817 68.2472C233.248 68.8317 229.833 66.2629 224.942 66.2322C220.05 66.2014 216.466 68.6317 215.943 68.0318C215.682 67.755 216.266 66.6936 217.835 65.5707C219.956 64.1169 222.479 63.3638 225.05 63.4173C227.588 63.4195 230.058 64.2393 232.094 65.7553C233.586 66.9089 234.094 67.9857 233.817 68.2472Z" fill="#263238"/>
<path d="M181.519 74.6767C181.544 75.8736 181.093 77.0314 180.265 77.8965C179.438 78.7615 178.301 79.2631 177.104 79.2913C176.53 79.3287 175.953 79.2513 175.408 79.0635C174.864 78.8758 174.362 78.5814 173.933 78.1977C173.503 77.8139 173.154 77.3485 172.907 76.8285C172.659 76.3085 172.517 75.7443 172.49 75.169C172.489 73.979 172.947 72.8346 173.77 71.9747C174.593 71.1148 175.716 70.606 176.904 70.5544C177.479 70.5191 178.054 70.598 178.598 70.7865C179.142 70.9751 179.643 71.2696 180.072 71.6529C180.501 72.0363 180.85 72.5009 181.098 73.0199C181.346 73.539 181.49 74.1021 181.519 74.6767Z" fill="#263238"/>
<path d="M185.811 68.7855C185.242 69.37 181.812 66.8012 176.936 66.7705C172.06 66.7397 168.46 69.1547 167.922 68.5548C167.676 68.2933 168.245 67.2165 169.829 66.0937C171.954 64.6482 174.474 63.8959 177.043 63.9402C179.579 63.9574 182.045 64.7757 184.088 66.2783C185.534 67.4473 186.088 68.5086 185.811 68.7855Z" fill="#263238"/>
<path d="M203.238 105.087C203.238 104.81 206.315 104.318 211.175 103.718C212.421 103.595 213.606 103.364 213.821 102.518C213.945 101.229 213.666 99.9338 213.021 98.8109C211.883 95.7345 210.668 92.6582 209.406 89.2895C204.392 75.7227 200.777 64.5862 201.331 64.3863C201.885 64.1863 206.392 75.0152 211.391 88.582C212.606 91.9199 213.759 95.1039 214.852 98.1649C215.625 99.6725 215.843 101.404 215.467 103.056C215.277 103.494 214.992 103.884 214.633 104.198C214.274 104.512 213.849 104.742 213.39 104.871C212.7 105.043 211.994 105.135 211.283 105.148C206.33 105.41 203.254 105.41 203.238 105.087Z" fill="#263238"/>
<path d="M188.841 108.394C189.641 108.394 189.595 113.654 194.101 117.454C198.608 121.253 204.269 120.715 204.3 121.453C204.3 121.792 203.023 122.484 200.639 122.53C197.53 122.536 194.518 121.447 192.133 119.453C189.847 117.54 188.387 114.818 188.056 111.855C187.872 109.701 188.472 108.363 188.841 108.394Z" fill="#263238"/>
<path d="M125.037 72.1695C125.037 72.1695 126.421 79.522 126.79 82.8291C126.929 84.0443 126.79 97.5035 130.036 98.211C132.851 98.7955 138.434 96.2268 140.926 90.6585C143.418 85.0903 148.156 71.7234 147.633 65.6476C146.941 57.3721 146.556 48.9429 148.217 40.7905C149.879 32.6381 153.77 24.701 160.308 19.5635C166.845 14.4259 176.305 12.657 183.749 16.3794C188.364 18.6867 191.763 22.7629 196.055 25.6086C199.861 28.3049 204.523 29.5141 209.16 29.0079C211.461 28.719 213.633 27.7861 215.426 26.3165C217.22 24.8469 218.562 22.9006 219.297 20.7017C220.651 15.8564 218.159 10.5497 214.267 7.33488C210.376 4.12007 205.376 2.64342 200.423 1.65898C186.675 -1.29333 172.371 -0.290695 159.169 4.55076C146.141 9.6114 134.558 19.3328 129.021 32.1459C122.591 46.9586 123.33 56.0493 125.037 72.1387" fill="#263238"/>
<path d="M197.67 74.8767C197.517 73.1159 197.24 71.3683 196.839 69.6469C195.607 64.9735 192.839 60.8505 188.979 57.9412C186.34 55.9446 183.268 54.5958 180.012 54.0035C176.272 53.32 172.418 53.6439 168.844 54.9418C166.92 55.6282 165.115 56.6089 163.491 57.8489C161.758 59.0955 160.241 60.618 159 62.3558C156.332 65.9883 154.894 70.3775 154.894 74.8844C154.894 79.3913 156.332 83.7804 159 87.4129C160.249 89.1438 161.765 90.6651 163.491 91.9198C165.115 93.1553 166.921 94.1309 168.844 94.8116C172.416 96.1139 176.27 96.4431 180.012 95.7653C183.27 95.1706 186.342 93.8163 188.979 91.8121C192.841 88.9092 195.615 84.7918 196.855 80.1219C197.247 78.3944 197.52 76.6418 197.67 74.8767C197.693 74.9935 197.693 75.1136 197.67 75.2305V76.2611C197.677 76.8231 197.631 77.3845 197.532 77.9377C197.459 78.6958 197.325 79.4468 197.132 80.1834C195.987 84.9927 193.222 89.2617 189.302 92.2736C186.399 94.5107 182.978 95.9795 179.357 96.5441C175.735 97.1087 172.029 96.7509 168.583 95.5038C166.583 94.8105 164.705 93.8088 163.015 92.5351C161.241 91.2517 159.683 89.694 158.4 87.9205C155.622 84.1564 154.123 79.6011 154.123 74.9228C154.123 70.2445 155.622 65.6893 158.4 61.9252C160.98 58.4122 164.538 55.7372 168.629 54.2342C172.321 52.9161 176.297 52.6029 180.15 53.3267C183.51 53.965 186.673 55.388 189.379 57.4798C193.296 60.4878 196.061 64.7509 197.209 69.5546C197.402 70.2964 197.536 71.0525 197.608 71.8157C197.708 72.3637 197.754 72.92 197.747 73.4769V74.5075C197.701 74.769 197.685 74.8767 197.67 74.8767Z" fill="#263238"/>
<path d="M253.614 74.8767C253.451 73.1172 253.174 71.3702 252.783 69.6469C251.547 64.9714 248.773 60.8481 244.908 57.9413C242.27 55.9421 239.197 54.593 235.94 54.0035C232.206 53.3199 228.356 53.6437 224.788 54.9418C220.85 56.3926 217.426 58.9712 214.944 62.3559C212.267 65.9845 210.823 70.3752 210.823 74.8844C210.823 79.3936 212.267 83.7843 214.944 87.4129C216.187 89.1433 217.698 90.6646 219.42 91.9198C221.047 93.1586 222.859 94.1344 224.788 94.8116C228.355 96.1141 232.204 96.4433 235.94 95.7653C239.198 95.1707 242.271 93.8163 244.908 91.8122C248.77 88.9092 251.544 84.7918 252.783 80.122C253.175 78.3936 253.452 76.6414 253.614 74.8767C253.621 74.9946 253.621 75.1127 253.614 75.2305C253.614 75.5074 253.614 75.8458 253.614 76.2611C253.62 76.8224 253.578 77.3832 253.491 77.9377C253.412 78.6961 253.273 79.4471 253.076 80.1835C251.943 84.9978 249.176 89.2704 245.246 92.2736C242.54 94.3624 239.377 95.7804 236.017 96.4114C232.16 97.1508 228.175 96.8373 224.481 95.5038C220.383 94.0205 216.825 91.3412 214.267 87.8129C211.48 84.0526 209.975 79.4959 209.975 74.8152C209.975 70.1345 211.48 65.5778 214.267 61.8175C215.549 60.0425 217.107 58.4845 218.882 57.2029C220.575 55.9303 222.453 54.924 224.45 54.2188C228.147 52.9001 232.128 52.587 235.986 53.3113C239.347 53.9474 242.51 55.3706 245.215 57.4644C249.141 60.4646 251.907 64.731 253.045 69.5392C253.243 70.2808 253.382 71.0369 253.46 71.8003C253.548 72.3497 253.589 72.9054 253.583 73.4616C253.583 73.8769 253.583 74.2153 253.583 74.4922C253.602 74.6195 253.612 74.748 253.614 74.8767Z" fill="#263238"/>
<path d="M210.929 72.5694C210.929 72.6925 210.145 72.2925 208.93 71.8926C207.341 71.3584 205.664 71.1389 203.992 71.2466C202.338 71.3693 200.722 71.797 199.224 72.5079C198.07 73.077 197.424 73.5692 197.347 73.4616C197.27 73.3539 197.809 72.7386 198.885 72.0157C200.401 71.1021 202.113 70.564 203.879 70.4463C205.645 70.3286 207.414 70.6346 209.037 71.3389C210.376 71.9234 210.991 72.5079 210.929 72.5694Z" fill="#263238"/>
<path d="M130.006 210.745L128.806 173.044C128.806 173.044 136.297 207.545 175.536 207.099C213.022 206.669 212.345 176.705 212.345 176.705L213.683 191.902V253.291L189.226 353.443L157.985 357.35L123.468 220.451L130.006 210.745Z" fill="#3B82F6"/>
<path d="M208.853 198.685C208.736 198.969 208.587 199.237 208.407 199.485C207.937 200.243 207.424 200.972 206.868 201.67C204.895 204.265 202.541 206.547 199.885 208.438C195.944 211.258 191.525 213.343 186.841 214.59C181.104 216.13 175.123 216.542 169.229 215.805C163.359 214.997 157.65 213.279 152.309 210.714C147.974 208.64 143.852 206.146 140.003 203.269C137.399 201.359 134.904 199.305 132.528 197.116C131.682 196.347 131.066 195.701 130.636 195.271C130.406 195.068 130.2 194.841 130.021 194.594C130.281 194.757 130.524 194.948 130.743 195.163L132.743 196.886C134.466 198.424 137.019 200.47 140.342 202.854C144.21 205.641 148.33 208.061 152.647 210.083C157.926 212.573 163.554 214.244 169.337 215.036C175.124 215.763 180.996 215.382 186.641 213.914C191.255 212.715 195.627 210.727 199.562 208.038C202.205 206.212 204.581 204.027 206.622 201.546C208.099 199.701 208.791 198.639 208.853 198.685Z" fill="#263238"/>
<path d="M181.627 520.567L181.058 342.598L130.513 212.76L128.821 173.675L98.0572 196.963C98.0572 196.963 53.2498 351.197 52.4961 345.875C51.7424 340.553 52.4961 520.567 52.4961 520.567H181.627Z" fill="#EBEBEB"/>
<path d="M180.412 520.075C180.196 520.075 180.012 479.974 180.012 430.506C180.012 381.038 180.196 340.937 180.412 340.937C180.627 340.937 180.812 381.038 180.812 430.506C180.812 479.974 180.627 520.075 180.412 520.075Z" fill="#263238"/>
<path d="M98.4727 222.312L104.718 227.05L100.334 255.845L174.105 333.123L107.102 245.123L112.809 222.312H98.4727Z" fill="#E0E0E0"/>
<path d="M184.396 429.398L71.1695 396.204L67.4163 310.204L98.4723 196.901C98.4723 196.901 24.4548 233.833 19.4095 257.367C14.3642 280.902 2.22794 337.999 0.951243 379.3C-0.202398 416.216 -0.371606 440.827 8.05766 452.687C32.2072 486.434 191.317 492.464 254.875 452.687" fill="#EBEBEB"/>
<path d="M175.535 334.984C175.535 334.984 175.397 334.861 175.166 334.569C174.936 334.277 174.566 333.831 174.151 333.308L170.306 328.386C166.952 324.048 162.169 317.834 156.277 310.173L110.239 249.923L106.778 245.308L106.655 245.154V244.97C108.624 237.094 110.547 229.449 112.377 222.158L112.747 222.65H98.4107H98.0415V222.281C98.0415 213.052 98.0415 204.438 98.0415 196.87V196.717L98.1646 196.624L120.422 179.704L126.575 175.09L128.113 173.905C128.288 173.761 128.479 173.637 128.682 173.536L128.175 173.982L126.636 175.228L120.622 179.935L98.5337 197.07L98.6568 196.824C98.6568 204.392 98.6568 212.929 98.6568 222.235L98.2876 221.881H112.624H113.239L113.116 222.374L107.424 245.185L107.348 244.846L110.824 249.384L156.662 309.789L170.506 328.139C172.044 330.293 173.351 331.969 174.228 333.154C174.628 333.708 174.936 334.154 175.182 334.477L175.535 334.984Z" fill="#263238"/>
<path d="M226.003 190.195C216.974 174.413 212.283 176.043 212.283 176.043L212.759 181.673V193.502L208.468 244.262L181.042 354.535L181.611 520.567H285.3L298.206 317.895L297.037 230.572L226.003 190.195Z" fill="#EBEBEB"/>
<path d="M297.053 230.572C297.053 230.572 323.894 250.384 326.278 282.271C328.17 308.158 332.431 379.053 333.277 394.481C334.507 418.508 315.788 474.79 267.058 458.855C237.832 449.287 129.882 412.601 129.882 412.601L137.066 366.748L265.197 374.439L267.75 267.565L297.053 230.572Z" fill="#EBEBEB"/>
<path d="M135.543 372.024C135.543 372.024 99.2724 368.101 90.9354 370.132C82.8599 372.085 71.3696 381.961 71.3696 381.961L71.5389 396.281L129.882 412.601L135.543 372.024Z" fill="#FFBE9D"/>
<path d="M181.058 337.953C181.097 337.784 181.154 337.619 181.227 337.461C181.35 337.107 181.534 336.63 181.765 336.046C182.273 334.754 183.011 332.969 183.934 330.631L192.056 310.758L204.177 281.317C205.33 278.564 206.469 275.687 207.899 272.872C209.33 270.057 210.883 267.243 212.514 264.428C216.049 258.688 219.89 253.143 224.019 247.815C226.111 245.123 228.218 242.493 230.403 239.97V240.386L225.88 228.896L225.727 228.511L226.111 228.373L244.985 221.989L244.785 222.512C236.017 207.868 228.618 195.501 223.358 186.734C220.774 182.396 218.559 178.92 216.205 177.505C215.319 176.97 214.353 176.581 213.344 176.351C212.986 176.284 212.632 176.196 212.283 176.09C212.644 176.114 213.004 176.16 213.36 176.228C214.405 176.416 215.41 176.786 216.328 177.32C217.755 178.248 218.988 179.444 219.958 180.843C221.317 182.659 222.575 184.549 223.727 186.503L245.415 222.158L245.646 222.543L245.215 222.681L226.342 229.157L226.573 228.649L231.11 240.14L231.203 240.355L231.033 240.54C228.88 243.031 226.773 245.662 224.696 248.354C220.582 253.643 216.752 259.148 213.221 264.843C211.575 267.642 209.96 270.396 208.607 273.211C207.253 276.026 206.053 278.825 204.9 281.594C200.285 292.638 196.101 302.59 192.594 310.973C189.087 319.356 186.226 326.032 184.242 330.739C183.257 333.031 182.473 334.831 181.934 336.107C181.673 336.692 181.473 337.138 181.304 337.492C181.243 337.656 181.16 337.811 181.058 337.953Z" fill="#263238"/>
<path d="M311.773 449.933C311.642 450.108 311.493 450.268 311.327 450.41L309.942 451.748C308.121 453.414 306.149 454.908 304.051 456.209C300.707 458.244 297.078 459.768 293.284 460.731C288.256 461.976 283.047 462.309 277.902 461.716C274.902 461.366 271.941 460.738 269.057 459.839C265.981 458.885 263.028 457.701 259.828 456.593C253.506 454.286 246.707 451.979 239.57 449.395C225.265 444.38 209.499 439.027 192.886 433.567C159.661 422.661 129.359 413.463 107.394 406.895L81.3676 399.204L74.2919 397.096L72.4615 396.543C72.2497 396.485 72.0438 396.407 71.8462 396.312L72.4923 396.45L74.338 396.942L81.4599 398.896C87.6126 400.619 96.5495 403.157 107.609 406.356C129.605 412.77 159.907 421.892 193.178 432.813C209.806 438.258 225.573 443.58 239.862 448.687C247 451.225 253.783 453.64 260.105 455.963C263.274 457.101 266.258 458.301 269.334 459.254C272.176 460.156 275.096 460.79 278.056 461.146C283.152 461.771 288.319 461.485 293.314 460.3C297.094 459.375 300.721 457.909 304.082 455.947C306.179 454.676 308.165 453.23 310.019 451.625L311.45 450.348C311.547 450.202 311.655 450.063 311.773 449.933Z" fill="#263238"/>
<path d="M71.4775 396.543C71.4775 396.712 69.4317 396.266 66.1861 396.404C64.2891 396.482 62.4088 396.792 60.5871 397.327C58.3637 397.994 56.2419 398.962 54.2806 400.203C50.738 402.541 47.742 405.615 45.4975 409.217C43.7901 411.986 43.0364 413.832 42.8979 413.832C42.9801 413.358 43.125 412.898 43.3286 412.463C43.794 411.239 44.3599 410.055 45.0207 408.925C47.1764 405.136 50.2028 401.915 53.8499 399.527C55.8771 398.247 58.0791 397.268 60.3872 396.619C62.2731 396.109 64.2171 395.845 66.1707 395.835C67.4818 395.817 68.7912 395.935 70.0777 396.189C70.5584 396.242 71.0294 396.361 71.4775 396.543Z" fill="#263238"/>
<path d="M35.8066 385.314C35.8066 385.314 35.8066 385.16 35.9451 384.898C36.129 384.531 36.3676 384.194 36.6526 383.899C37.751 382.823 39.1618 382.123 40.6827 381.899C42.8828 381.537 45.1275 381.537 47.3277 381.899C50.0195 382.254 52.6652 382.898 55.2186 383.822C59.8887 385.462 64.1529 388.085 67.724 391.513C68.7884 392.561 69.761 393.698 70.6312 394.912C70.969 395.343 71.2531 395.813 71.4772 396.312C71.3388 396.419 70.0775 394.451 67.3395 391.928C63.7293 388.699 59.5158 386.215 54.9417 384.622C52.446 383.727 49.8707 383.073 47.2508 382.668C45.1187 382.284 42.9409 382.221 40.7904 382.484C39.3593 382.647 38.007 383.225 36.8987 384.145C36.1296 384.806 35.8682 385.345 35.8066 385.314Z" fill="#263238"/>
<path d="M78.0761 286.593C77.8256 285.838 77.6504 285.06 77.553 284.27C77.3223 283.532 76.9993 282.655 76.6455 281.64C76.2917 280.625 75.6765 279.517 74.9689 278.348C73.3136 275.594 71.3808 273.017 69.2007 270.657C66.5031 267.791 63.5419 265.185 60.3561 262.874C54.5728 258.647 47.9969 255.628 41.0211 253.999C38.8986 253.549 36.7432 253.271 34.5761 253.168C33.7776 253.173 32.9802 253.111 32.1919 252.983C32.9865 252.871 33.7895 252.829 34.5915 252.86C36.7846 252.836 38.9747 253.032 41.1288 253.445C48.2449 254.929 54.9593 257.924 60.8176 262.228C64.0548 264.556 67.0443 267.211 69.7391 270.15C71.9323 272.566 73.8513 275.217 75.4611 278.056C76.1533 279.271 76.5994 280.456 76.9993 281.455C77.3992 282.455 77.6146 283.424 77.7992 284.178C77.9517 284.975 78.0443 285.782 78.0761 286.593Z" fill="#263238"/>
<path d="M293.038 418.046C293.019 417.862 293.019 417.677 293.038 417.493V415.878C293.038 414.462 292.93 412.386 292.73 409.725C292.172 402.166 290.621 394.713 288.116 387.56C287.362 385.19 286.33 382.918 285.039 380.792C283.6 378.527 281.509 376.752 279.04 375.7C273.888 373.485 267.689 373.777 261.382 373.424L220.097 371.685C185.98 370.147 155.632 368.917 136.558 367.902L136.82 367.686C135.666 374.7 134.743 380.253 134.112 384.114C133.789 385.975 133.543 387.421 133.359 388.452C133.282 388.913 133.205 389.282 133.159 389.575L133.066 389.944C133.053 389.816 133.053 389.687 133.066 389.559L133.22 388.436C133.359 387.406 133.574 385.944 133.836 384.068C134.42 380.207 135.251 374.639 136.312 367.609V367.394H136.543L220.082 370.87L261.367 372.731C264.535 372.885 267.627 372.962 270.596 373.208C273.555 373.373 276.466 374.028 279.21 375.146C281.794 376.232 283.992 378.07 285.516 380.422C286.818 382.597 287.851 384.921 288.593 387.344C291.064 394.544 292.534 402.048 292.961 409.648C293.13 412.324 293.13 414.416 293.115 415.801C293.115 416.477 293.115 417.016 293.115 417.416C293.053 417.846 293.038 418.046 293.038 418.046Z" fill="#263238"/>
<path d="M268.596 317.726C268.812 317.726 268.996 330.139 268.996 345.413C268.996 360.687 268.812 373.101 268.596 373.101C268.381 373.101 268.196 360.687 268.196 345.413C268.196 330.139 268.381 317.726 268.596 317.726Z" fill="#263238"/>
<path d="M20.3016 254.552C20.3016 254.552 20.2094 254.906 19.994 255.568C19.7787 256.229 19.3941 257.229 19.0711 258.644C18.3174 261.305 17.3637 265.274 16.3024 270.457C14.1643 280.825 11.534 295.991 8.61144 314.972C7.15016 324.478 5.53506 334.969 3.99688 346.213C3.2124 351.858 2.72019 357.734 2.32026 363.825C1.92033 369.916 1.5973 376.131 1.35119 382.653C0.889735 395.589 0.612829 409.248 0.981994 423.476C1.10505 427.029 1.22811 430.629 1.52037 434.244C1.61266 436.059 1.92029 437.843 2.13563 439.643C2.46416 441.441 2.90078 443.219 3.4431 444.965C4.53772 448.494 6.26844 451.794 8.5499 454.701C10.8377 457.658 13.8459 459.978 17.2868 461.439C24.6092 465.03 32.2448 467.944 40.0981 470.145C48.0506 472.529 56.2645 474.452 64.6015 476.159C82.7417 479.904 101.16 482.148 119.669 482.866C128.437 483.091 137.211 482.865 145.956 482.189C154.524 481.589 162.876 480.651 170.952 479.497C186.179 477.339 201.188 473.85 215.805 469.068C228.322 464.935 240.457 459.727 252.076 453.502V454.009L202.454 436.366L189.056 431.582L185.595 430.321C184.811 430.029 184.426 429.86 184.426 429.86L185.611 430.244L189.102 431.429L202.546 436.043L252.383 453.425L252.983 453.625L252.43 453.932C240.79 460.207 228.629 465.461 216.082 469.637C201.434 474.463 186.388 477.989 171.121 480.174C163.03 481.389 154.662 482.297 146.079 482.896C137.309 483.583 128.509 483.819 119.715 483.604C101.159 482.896 82.6945 480.652 64.5092 476.897C56.1414 475.175 47.9121 473.252 39.8982 470.868C31.9991 468.638 24.3179 465.698 16.9484 462.085C13.3637 460.578 10.2277 458.172 7.84235 455.101C5.50951 452.114 3.7423 448.726 2.62787 445.103C2.06991 443.328 1.62297 441.52 1.28965 439.689C1.05892 437.843 0.766676 436.028 0.674385 434.213C0.382129 430.583 0.259079 426.968 0.151406 423.445C-0.217759 409.171 0.151404 395.512 0.582097 382.56C0.828207 376.1 1.16147 369.819 1.58191 363.718C1.99722 357.565 2.50482 351.72 3.30467 346.075C4.84286 334.769 6.47334 324.325 7.91924 314.834C10.9956 295.853 13.6721 280.702 15.9024 270.35C17.0099 265.166 17.9944 261.197 18.7942 258.536C19.1326 257.198 19.5633 256.214 19.7787 255.552C19.994 254.891 20.3016 254.552 20.3016 254.552Z" fill="#263238"/>
<path d="M71.3081 385.914C90.2432 364.948 89.4126 327.678 78.5376 301.236C77.5378 329.878 74.1538 355.288 71.5696 383.13" fill="#E0E0E0"/>
<path d="M78.5837 306.589C78.6171 306.896 78.6171 307.206 78.5837 307.512C78.5837 308.204 78.4914 309.05 78.4145 310.127C78.2299 312.511 77.9838 315.772 77.6608 319.741C76.984 327.955 76.1226 339.107 75.0612 351.443L72.5694 383.16C72.2771 387.129 72.031 390.39 71.8464 392.774L71.6157 395.374C71.5973 395.679 71.5561 395.982 71.4926 396.281C71.4478 395.98 71.4478 395.674 71.4926 395.374C71.4926 394.681 71.4927 393.835 71.5696 392.743C71.6465 390.467 71.8157 387.175 72.031 383.114C72.5078 374.993 73.2769 363.764 74.2921 351.381C75.3074 338.999 76.3226 327.801 77.1378 319.695C77.5531 315.726 77.8915 312.481 78.1376 310.096C78.2761 309.035 78.3838 308.174 78.4607 307.497C78.4604 307.19 78.5018 306.885 78.5837 306.589Z" fill="#263238"/>
<path d="M125.252 268.719C125.658 274.129 125.792 279.555 125.652 284.978C125.791 290.401 125.658 295.827 125.252 301.237C125.037 301.237 124.853 293.946 124.853 284.978C124.853 276.01 125.037 268.719 125.252 268.719Z" fill="#263238"/>
<path d="M112.916 322.725C113.238 325.869 114.449 328.857 116.408 331.339C118.192 333.661 121.807 335.953 124.714 335.753C126.904 335.865 129.086 335.406 131.046 334.422C133.006 333.438 134.678 331.962 135.897 330.139C139.434 324.509 140.311 312.773 137.435 305.836C135.481 301.067 131.097 296.606 125.944 296.499C119.176 296.345 114.931 301.236 113.485 306.189" fill="#E0E0E0"/>
<path d="M113.516 306.19C113.739 305.019 114.161 303.896 114.762 302.867C115.431 301.631 116.287 300.505 117.3 299.529C118.656 298.23 120.3 297.27 122.099 296.73C123.142 296.41 124.223 296.234 125.314 296.207C126.506 296.142 127.701 296.298 128.836 296.668C131.313 297.544 133.49 299.108 135.112 301.175C136.942 303.407 138.213 306.044 138.819 308.866C139.458 311.862 139.685 314.93 139.496 317.987C139.188 322.802 138.234 327.601 135.573 331.262C134.25 332.982 132.485 334.311 130.467 335.107C128.631 335.844 126.658 336.174 124.683 336.077C123.241 336.089 121.818 335.74 120.545 335.061C119.426 334.476 118.391 333.741 117.469 332.877C116.021 331.434 114.871 329.719 114.085 327.832C113.558 326.641 113.196 325.383 113.008 324.094C112.956 323.758 112.925 323.419 112.916 323.079C112.896 322.962 112.896 322.842 112.916 322.725C113.229 324.432 113.745 326.094 114.454 327.678C115.276 329.485 116.435 331.119 117.869 332.493C118.797 333.306 119.832 333.989 120.945 334.523C122.133 335.136 123.454 335.448 124.791 335.43C126.739 335.527 128.683 335.159 130.462 334.357C132.24 333.555 133.803 332.341 135.02 330.816C137.496 327.386 138.45 322.664 138.742 317.957C139.08 311.804 138.05 305.743 134.589 301.652C133.042 299.69 130.973 298.203 128.621 297.36C127.555 297.008 126.436 296.846 125.314 296.883C124.273 296.895 123.238 297.045 122.237 297.33C120.518 297.825 118.938 298.716 117.623 299.929C116.617 300.849 115.752 301.911 115.054 303.082C114.483 304.088 113.97 305.126 113.516 306.19Z" fill="#263238"/>
<path d="M109.317 323.033C109.642 326.177 110.852 329.164 112.809 331.646C114.577 333.969 118.208 336.261 121.115 336.061C123.305 336.171 125.486 335.712 127.446 334.728C129.406 333.744 131.077 332.269 132.297 330.447C135.835 324.802 136.712 313.08 133.836 306.143C131.882 301.359 127.498 296.914 122.345 296.806C119.483 296.782 116.696 297.724 114.435 299.48C112.174 301.235 110.571 303.702 109.886 306.482" fill="#E0E0E0"/>
<path d="M109.917 306.482C110.142 305.317 110.563 304.199 111.163 303.175C111.832 301.938 112.688 300.812 113.701 299.837C115.857 297.758 118.72 296.571 121.715 296.514C122.907 296.45 124.101 296.607 125.237 296.976C127.714 297.852 129.891 299.415 131.513 301.483C133.344 303.712 134.611 306.35 135.205 309.174C135.856 312.167 136.089 315.237 135.897 318.295C135.589 323.109 134.635 327.893 131.974 331.57C130.651 333.29 128.886 334.619 126.868 335.415C125.032 336.151 123.059 336.482 121.084 336.384C119.64 336.392 118.218 336.038 116.946 335.354C115.824 334.779 114.788 334.049 113.87 333.185C112.413 331.743 111.262 330.021 110.486 328.124C109.959 326.938 109.597 325.686 109.409 324.402C109.409 323.955 109.317 323.617 109.302 323.386C109.285 323.269 109.285 323.15 109.302 323.033C109.616 324.734 110.132 326.391 110.84 327.97C111.651 329.788 112.811 331.429 114.254 332.8C115.183 333.613 116.218 334.296 117.331 334.83C118.521 335.437 119.84 335.748 121.176 335.738C123.123 335.832 125.063 335.463 126.839 334.661C128.615 333.859 130.174 332.646 131.39 331.123C133.882 327.678 134.835 322.971 135.128 318.264C135.466 312.111 134.436 306.051 130.975 301.959C129.452 299.981 127.398 298.477 125.053 297.622C123.992 297.269 122.878 297.108 121.761 297.145C118.906 297.189 116.167 298.284 114.07 300.221C113.064 301.141 112.199 302.204 111.501 303.375C110.908 304.376 110.379 305.414 109.917 306.482Z" fill="#263238"/>
<path d="M115.854 304.759C114.147 304.542 112.416 304.89 110.925 305.748C109.434 306.606 108.264 307.928 107.594 309.512C106.316 312.738 106.316 316.33 107.594 319.556C108.123 321.227 108.998 322.768 110.162 324.079C111.349 325.398 113.006 326.199 114.777 326.309C116.059 326.237 117.305 325.858 118.41 325.205C119.515 324.552 120.448 323.644 121.13 322.556C122.32 320.862 123.13 318.93 123.504 316.894C123.879 314.858 123.809 312.764 123.299 310.758C122.591 308.081 120.622 305.359 117.869 305.282" fill="#E0E0E0"/>
<path d="M117.854 305.282C117.854 305.282 118.069 305.282 118.469 305.282C119.062 305.35 119.634 305.544 120.146 305.851C121.053 306.456 121.83 307.235 122.432 308.143C123.034 309.052 123.449 310.072 123.653 311.142C124.403 314.298 124.067 317.615 122.699 320.556C121.932 322.319 120.75 323.87 119.254 325.078C118.449 325.772 117.491 326.264 116.458 326.512C115.425 326.761 114.348 326.76 113.316 326.509C111.301 325.867 109.607 324.481 108.579 322.633C107.635 320.979 106.97 319.181 106.61 317.311C106.225 315.748 106.163 314.124 106.428 312.537C106.692 310.951 107.277 309.434 108.148 308.081C108.771 307.188 109.565 306.426 110.484 305.84C111.402 305.254 112.428 304.855 113.501 304.667C114.087 304.58 114.683 304.58 115.27 304.667C115.654 304.744 115.854 304.805 115.854 304.836C115.088 304.809 114.32 304.856 113.562 304.974C111.535 305.445 109.763 306.672 108.609 308.404C107.813 309.711 107.289 311.166 107.069 312.681C106.85 314.195 106.94 315.739 107.333 317.218C107.692 318.999 108.341 320.709 109.255 322.279C110.184 323.949 111.713 325.202 113.532 325.786C114.443 326.009 115.395 326.01 116.307 325.791C117.219 325.572 118.066 325.137 118.777 324.525C120.173 323.388 121.288 321.946 122.038 320.31C123.369 317.514 123.742 314.357 123.099 311.327C122.775 309.277 121.673 307.432 120.023 306.174C119.361 305.745 118.626 305.442 117.854 305.282Z" fill="#263238"/>
<path d="M123.606 330.047C123.483 330.047 123.314 329.555 122.791 328.939C122.086 328.148 121.176 327.567 120.161 327.263C119.109 326.96 118.024 326.79 116.931 326.755C116.085 326.755 115.531 326.617 115.531 326.509C115.531 326.401 116.054 326.278 116.931 326.186C118.098 326.061 119.279 326.166 120.407 326.494C121.582 326.832 122.593 327.586 123.252 328.616C123.729 329.416 123.699 330.031 123.606 330.047Z" fill="#263238"/>
<path d="M124.822 302.667C124.822 302.667 124.575 303.205 123.868 303.774C122.917 304.502 121.803 304.988 120.622 305.19C119.445 305.404 118.233 305.341 117.085 305.005C116.223 304.713 115.762 304.374 115.808 304.282C117.334 304.52 118.885 304.561 120.422 304.405C121.955 304.009 123.432 303.425 124.822 302.667Z" fill="#263238"/>
<path d="M230.51 192.487C230.51 192.487 230.695 192.487 231.018 192.671C231.487 192.881 231.944 193.117 232.387 193.379C234.036 194.311 235.583 195.415 237.001 196.67C241.731 200.837 245.169 206.271 246.907 212.329C248.728 218.28 249.989 224.387 250.676 230.572C250.953 232.941 251.091 234.864 251.184 236.186C251.261 236.877 251.261 237.573 251.184 238.263C251.01 237.592 250.897 236.908 250.845 236.217C250.645 234.756 250.384 232.879 250.091 230.649C249.24 224.524 247.908 218.476 246.108 212.56C244.397 206.637 241.111 201.289 236.602 197.086C234.687 195.404 232.651 193.867 230.51 192.487Z" fill="#263238"/>
<path d="M211.345 361.795C215.805 361.626 219.374 357.18 223.835 357.426C224.643 357.495 225.429 357.722 226.149 358.095C226.87 358.468 227.509 358.978 228.032 359.598C228.555 360.218 228.95 360.935 229.196 361.708C229.442 362.481 229.533 363.294 229.464 364.102C229.396 364.91 229.169 365.697 228.796 366.417C228.423 367.137 227.912 367.777 227.292 368.3C226.673 368.822 225.956 369.218 225.183 369.464C224.41 369.71 223.597 369.801 222.789 369.732C218.097 369.194 215.359 363.702 210.775 362.656" fill="#263238"/>
<path d="M249.153 365.594C247.757 365.592 246.363 365.479 244.985 365.256L245.231 363.718C250.737 364.594 255.367 363.718 258.982 361.026C263.597 357.688 266.473 351.704 267.704 343.244V342.921C268.211 339.568 268.903 273.78 268.903 261.29C268.903 241.77 251.783 239.109 251.045 239.001C250.307 238.894 234.786 236.279 226.526 257.583C217.882 279.902 204.053 322.91 203.146 327.955C203.023 328.57 202.854 329.339 202.669 330.216C201.223 336.676 198.239 350.105 207.191 357.826C217.174 366.456 225.05 363.118 225.373 362.979L226.003 364.379C225.634 364.533 216.959 368.301 206.191 358.995C196.532 350.658 199.654 336.63 201.162 329.878C201.362 329.016 201.515 328.339 201.623 327.678C202.546 322.602 216.42 279.41 225.096 257.029C233.771 234.648 251.122 237.448 251.245 237.494C251.368 237.54 270.38 240.416 270.38 261.29C270.38 271.58 269.703 339.583 269.165 343.152V343.46C267.873 352.35 264.735 358.672 259.828 362.272C256.722 364.503 252.977 365.669 249.153 365.594Z" fill="#263238"/>
<path d="M269.719 273.887C269.037 271.18 267.959 268.588 266.519 266.196C264.883 263.673 262.828 261.446 260.444 259.613C257.508 257.396 254.138 255.824 250.553 254.998C243.969 253.549 237.087 254.447 231.095 257.536C228.648 258.874 226.37 260.501 224.312 262.382C224.409 262.213 224.528 262.058 224.665 261.92C225.017 261.48 225.403 261.069 225.819 260.69C227.314 259.256 228.996 258.029 230.818 257.044C236.895 253.718 243.974 252.712 250.738 254.214C254.431 255.086 257.894 256.744 260.89 259.075C263.341 260.974 265.426 263.304 267.042 265.95C268.124 267.723 268.924 269.654 269.411 271.672C269.556 272.218 269.664 272.773 269.734 273.334C269.734 273.672 269.75 273.887 269.719 273.887Z" fill="#263238"/>
<path d="M308.896 396.85C308.329 394.623 307.62 392.435 306.774 390.298C304.588 385.199 300.964 380.849 296.345 377.777C293.759 376.196 290.882 375.15 287.885 374.7C285.413 374.316 282.923 374.059 280.425 373.931L275.364 373.577C274.742 373.561 274.123 373.478 273.518 373.331C274.136 373.256 274.761 373.256 275.379 373.331L280.455 373.424C282.978 373.48 285.494 373.685 287.992 374.039C291.102 374.445 294.093 375.492 296.775 377.115C301.53 380.263 305.202 384.794 307.297 390.098C307.937 391.68 308.411 393.324 308.712 395.004C308.855 395.609 308.917 396.23 308.896 396.85Z" fill="#263238"/>
<path d="M231.295 371.193C231.295 371.193 246.431 348.289 250.292 345.29C254.152 342.291 287.208 327.37 291.038 329.77C294.868 332.169 292.576 337.368 292.576 337.368C292.576 337.368 306.543 332.477 308.035 334.4C308.838 335.556 309.268 336.93 309.268 338.337C309.268 339.745 308.838 341.119 308.035 342.275C308.035 342.275 315.726 341.091 315.726 343.475C315.695 345.076 315.272 346.645 314.495 348.045C313.717 349.444 312.608 350.632 311.265 351.504C307.697 354.181 284.485 369.624 282.624 373.9L275.103 373.439L231.295 371.193Z" fill="#FFBE9D"/>
<path d="M274.826 364.625C274.996 364.117 275.229 363.631 275.518 363.179C276.255 361.927 277.088 360.734 278.01 359.611C281.103 355.922 284.814 352.799 288.977 350.382C293.118 347.959 297.462 345.9 301.959 344.229C303.667 343.567 305.036 343.075 306.036 342.691C306.529 342.486 307.046 342.342 307.574 342.26C307.132 342.565 306.651 342.809 306.143 342.983L302.159 344.69C297.768 346.487 293.502 348.579 289.392 350.951C285.304 353.336 281.609 356.341 278.44 359.857C276.041 362.702 274.964 364.702 274.826 364.625Z" fill="#EB996E"/>
<path d="M255.645 364.256C255.824 363.67 256.072 363.107 256.383 362.579C256.906 361.518 257.66 359.995 258.706 358.149C259.912 355.98 261.307 353.921 262.874 351.997C263.804 350.826 264.867 349.768 266.043 348.843C267.319 347.982 268.658 347.182 270.057 346.351C274.787 343.532 279.724 341.074 284.824 338.999C286.37 338.388 287.952 337.874 289.562 337.461C290.154 337.29 290.762 337.182 291.377 337.138C291.377 337.276 288.869 337.861 285.039 339.583C280.035 341.801 275.166 344.313 270.457 347.105C269.073 347.92 267.735 348.736 266.489 349.551C265.356 350.423 264.324 351.419 263.412 352.52C261.836 354.4 260.416 356.406 259.167 358.519L256.614 362.795C256.344 363.315 256.019 363.805 255.645 364.256Z" fill="#EB996E"/>
</g>
<g clip-path="url(#clip1_8981_10717)">
<path d="M129.298 77.5224C128.744 77.307 107.286 71.6772 108.579 93.3811C109.871 115.085 131.39 109.301 131.405 108.671C131.421 108.04 129.298 77.5224 129.298 77.5224Z" fill="#FFBE9D"/>
<path d="M124.283 100.857C124.176 100.78 123.914 101.134 123.299 101.472C122.42 101.912 121.404 101.989 120.469 101.687C118.131 100.995 115.977 97.4727 115.639 93.5657C115.471 91.7382 115.702 89.8961 116.315 88.1667C116.478 87.4749 116.806 86.8331 117.273 86.2971C117.739 85.761 118.329 85.3467 118.992 85.0903C119.42 84.9491 119.884 84.9626 120.302 85.1285C120.721 85.2943 121.069 85.602 121.284 85.9978C121.607 86.5823 121.499 87.0284 121.607 87.0592C121.714 87.0899 122.053 86.6592 121.822 85.7825C121.674 85.2494 121.341 84.7861 120.884 84.475C120.576 84.2658 120.23 84.12 119.866 84.0461C119.501 83.9721 119.126 83.9715 118.761 84.0443C117.882 84.2741 117.077 84.7258 116.422 85.356C115.768 85.9862 115.286 86.7739 115.023 87.6437C114.198 89.5831 113.87 91.6981 114.07 93.7964C114.47 98.1649 116.961 102.118 120.146 102.841C120.74 102.976 121.356 102.975 121.95 102.84C122.544 102.704 123.099 102.436 123.576 102.057C124.268 101.38 124.36 100.887 124.283 100.857Z" fill="#EB996E"/>
<path d="M183.473 0.0131226C194.501 0.0131226 205.73 0.0131145 219.528 7.22722C228.234 11.8418 233.648 18.9636 238.186 27.6697C241.805 34.7479 243.573 42.6275 243.324 50.5733C242.924 58.0797 242.893 63.3249 239.893 70.216" fill="#263238"/>
<path d="M179.058 1.72051C186.81 1.16817 194.594 2.16721 201.955 4.65919C209.316 7.15117 216.107 11.086 221.929 16.2336C227.751 21.3812 232.488 27.6382 235.863 34.6385C239.238 41.6388 241.184 49.2419 241.585 57.003C243.001 84.1828 244.247 113.578 243.954 128.375C243.308 160.154 211.483 164.845 211.483 164.845C211.483 164.845 212.191 174.259 213.021 185.949C213.391 191.534 212.638 197.136 210.806 202.424C208.974 207.713 206.1 212.58 202.354 216.739C198.608 220.898 194.067 224.263 188.998 226.636C183.93 229.01 178.437 230.343 172.844 230.557C167.349 230.767 161.866 229.891 156.709 227.98C151.552 226.07 146.823 223.161 142.792 219.421C138.76 215.681 135.505 211.182 133.214 206.183C130.922 201.184 129.638 195.783 129.436 190.287L124.714 62.2174C124.138 47.0389 129.494 32.2325 139.646 20.9344C149.799 9.63634 163.951 2.7341 179.104 1.68974L179.058 1.72051Z" fill="#FFBE9D"/>
<path d="M211.483 164.845C211.483 164.845 191.948 165.861 170.721 152.278C170.721 152.278 180.335 175.351 212.052 172.798L211.483 164.845Z" fill="#EB996E"/>
<path d="M229.403 74.6767C229.428 75.871 228.979 77.0265 228.155 77.8911C227.331 78.7557 226.198 79.259 225.004 79.2913C224.428 79.3308 223.851 79.2549 223.306 79.0679C222.76 78.8809 222.258 78.5867 221.828 78.2026C221.398 77.8184 221.049 77.3521 220.802 76.8311C220.555 76.3101 220.414 75.745 220.389 75.169C220.388 73.9815 220.844 72.8393 221.664 71.9798C222.483 71.1203 223.602 70.6098 224.788 70.5544C225.363 70.517 225.94 70.5944 226.484 70.7822C227.029 70.9699 227.53 71.2643 227.96 71.648C228.39 72.0318 228.738 72.4972 228.986 73.0172C229.234 73.5372 229.376 74.1014 229.403 74.6767Z" fill="#263238"/>
<path d="M233.817 68.2472C233.248 68.8317 229.833 66.2629 224.942 66.2322C220.05 66.2014 216.466 68.6317 215.943 68.0318C215.682 67.755 216.266 66.6936 217.835 65.5707C219.956 64.1169 222.479 63.3638 225.05 63.4173C227.588 63.4195 230.058 64.2393 232.094 65.7553C233.586 66.9089 234.094 67.9857 233.817 68.2472Z" fill="#263238"/>
<path d="M181.519 74.6767C181.544 75.8736 181.093 77.0314 180.265 77.8965C179.438 78.7615 178.301 79.2631 177.104 79.2913C176.53 79.3287 175.953 79.2513 175.408 79.0635C174.864 78.8758 174.362 78.5814 173.933 78.1977C173.503 77.8139 173.154 77.3485 172.907 76.8285C172.659 76.3085 172.517 75.7443 172.49 75.169C172.489 73.979 172.947 72.8346 173.77 71.9747C174.593 71.1148 175.716 70.606 176.904 70.5544C177.479 70.5191 178.054 70.598 178.598 70.7865C179.142 70.9751 179.643 71.2696 180.072 71.6529C180.501 72.0363 180.85 72.5009 181.098 73.0199C181.346 73.539 181.49 74.1021 181.519 74.6767Z" fill="#263238"/>
<path d="M185.811 68.7855C185.242 69.37 181.812 66.8012 176.936 66.7705C172.06 66.7397 168.46 69.1547 167.922 68.5548C167.676 68.2933 168.245 67.2165 169.829 66.0937C171.954 64.6482 174.474 63.8959 177.043 63.9402C179.579 63.9574 182.045 64.7757 184.088 66.2783C185.534 67.4473 186.088 68.5086 185.811 68.7855Z" fill="#263238"/>
<path d="M203.238 105.087C203.238 104.81 206.315 104.318 211.175 103.718C212.421 103.595 213.606 103.364 213.821 102.518C213.945 101.229 213.666 99.9338 213.021 98.8109C211.883 95.7345 210.668 92.6582 209.406 89.2895C204.392 75.7227 200.777 64.5862 201.331 64.3863C201.885 64.1863 206.392 75.0152 211.391 88.582C212.606 91.9199 213.759 95.1039 214.852 98.1649C215.625 99.6725 215.843 101.404 215.467 103.056C215.277 103.494 214.992 103.884 214.633 104.198C214.274 104.512 213.849 104.742 213.39 104.871C212.7 105.043 211.994 105.135 211.283 105.148C206.33 105.41 203.254 105.41 203.238 105.087Z" fill="#263238"/>
<path d="M188.841 108.394C189.641 108.394 189.595 113.654 194.101 117.454C198.608 121.253 204.269 120.715 204.3 121.453C204.3 121.792 203.023 122.484 200.639 122.53C197.53 122.536 194.518 121.447 192.133 119.453C189.847 117.54 188.387 114.818 188.056 111.855C187.872 109.701 188.472 108.363 188.841 108.394Z" fill="#263238"/>
<path d="M187.21 49.712C186.718 51.0348 181.857 50.3734 176.12 51.0194C170.383 51.6655 165.737 53.1883 164.984 51.9885C164.661 51.4193 165.476 50.1734 167.352 48.9121C169.857 47.3606 172.682 46.3993 175.614 46.1008C178.545 45.8023 181.506 46.1746 184.272 47.1893C186.38 47.9738 187.426 49.0198 187.21 49.712Z" fill="#263238"/>
<path d="M233.125 50.8657C232.264 51.9732 228.911 50.7888 224.865 50.7118C220.82 50.6349 217.39 51.3887 216.605 50.2196C216.267 49.6505 216.805 48.543 218.312 47.5124C220.334 46.2666 222.68 45.651 225.053 45.7442C227.425 45.8373 229.716 46.635 231.633 48.0354C233.048 49.1891 233.51 50.3273 233.125 50.8657Z" fill="#263238"/>
<path d="M125.037 72.1695C125.037 72.1695 126.421 79.522 126.79 82.8291C126.929 84.0443 126.79 97.5035 130.036 98.211C132.851 98.7955 138.434 96.2268 140.926 90.6585C143.418 85.0903 148.156 71.7234 147.633 65.6476C146.941 57.3721 146.556 48.9429 148.217 40.7905C149.879 32.6381 153.77 24.701 160.308 19.5635C166.845 14.4259 176.305 12.657 183.749 16.3794C188.364 18.6867 191.763 22.7629 196.055 25.6086C199.861 28.3049 204.523 29.5141 209.16 29.0079C211.461 28.719 213.633 27.7861 215.426 26.3165C217.22 24.8469 218.562 22.9006 219.297 20.7017C220.651 15.8564 218.159 10.5497 214.267 7.33488C210.376 4.12007 205.376 2.64342 200.423 1.65898C186.675 -1.29333 172.371 -0.290695 159.169 4.55076C146.141 9.6114 134.558 19.3328 129.021 32.1459C122.591 46.9586 123.33 56.0493 125.037 72.1387" fill="#263238"/>
<path d="M197.67 74.8767C197.517 73.1159 197.24 71.3683 196.839 69.6469C195.607 64.9735 192.839 60.8505 188.979 57.9412C186.34 55.9446 183.268 54.5958 180.012 54.0035C176.272 53.32 172.418 53.6439 168.844 54.9418C166.92 55.6282 165.115 56.6089 163.491 57.8489C161.758 59.0955 160.241 60.618 159 62.3558C156.332 65.9883 154.894 70.3775 154.894 74.8844C154.894 79.3913 156.332 83.7804 159 87.4129C160.249 89.1438 161.765 90.6651 163.491 91.9198C165.115 93.1553 166.921 94.1309 168.844 94.8116C172.416 96.1139 176.27 96.4431 180.012 95.7653C183.27 95.1706 186.342 93.8163 188.979 91.8121C192.841 88.9092 195.615 84.7918 196.855 80.1219C197.247 78.3944 197.52 76.6418 197.67 74.8767C197.693 74.9935 197.693 75.1136 197.67 75.2305V76.2611C197.677 76.8231 197.631 77.3845 197.532 77.9377C197.459 78.6958 197.325 79.4468 197.132 80.1834C195.987 84.9927 193.222 89.2617 189.302 92.2736C186.399 94.5107 182.978 95.9795 179.357 96.5441C175.735 97.1087 172.029 96.7509 168.583 95.5038C166.583 94.8105 164.705 93.8088 163.015 92.5351C161.241 91.2517 159.683 89.694 158.4 87.9205C155.622 84.1564 154.123 79.6011 154.123 74.9228C154.123 70.2445 155.622 65.6893 158.4 61.9252C160.98 58.4122 164.538 55.7372 168.629 54.2342C172.321 52.9161 176.297 52.6029 180.15 53.3267C183.51 53.965 186.673 55.388 189.379 57.4798C193.296 60.4878 196.061 64.7509 197.209 69.5546C197.402 70.2964 197.536 71.0525 197.608 71.8157C197.708 72.3637 197.754 72.92 197.747 73.4769V74.5075C197.701 74.769 197.685 74.8767 197.67 74.8767Z" fill="#263238"/>
<path d="M253.614 74.8767C253.451 73.1172 253.174 71.3702 252.783 69.6469C251.547 64.9714 248.773 60.8481 244.908 57.9413C242.27 55.9421 239.197 54.593 235.94 54.0035C232.206 53.3199 228.356 53.6437 224.788 54.9418C220.85 56.3926 217.426 58.9712 214.944 62.3559C212.267 65.9845 210.823 70.3752 210.823 74.8844C210.823 79.3936 212.267 83.7843 214.944 87.4129C216.187 89.1433 217.698 90.6646 219.42 91.9198C221.047 93.1586 222.859 94.1344 224.788 94.8116C228.355 96.1141 232.204 96.4433 235.94 95.7653C239.198 95.1707 242.271 93.8163 244.908 91.8122C248.77 88.9092 251.544 84.7918 252.783 80.122C253.175 78.3936 253.452 76.6414 253.614 74.8767C253.621 74.9946 253.621 75.1127 253.614 75.2305C253.614 75.5074 253.614 75.8458 253.614 76.2611C253.62 76.8224 253.578 77.3832 253.491 77.9377C253.412 78.6961 253.273 79.4471 253.076 80.1835C251.943 84.9978 249.176 89.2704 245.246 92.2736C242.54 94.3624 239.377 95.7804 236.017 96.4114C232.16 97.1508 228.175 96.8373 224.481 95.5038C220.383 94.0205 216.825 91.3412 214.267 87.8129C211.48 84.0526 209.975 79.4959 209.975 74.8152C209.975 70.1345 211.48 65.5778 214.267 61.8175C215.549 60.0425 217.107 58.4845 218.882 57.2029C220.575 55.9303 222.453 54.924 224.45 54.2188C228.147 52.9001 232.128 52.587 235.986 53.3113C239.347 53.9474 242.51 55.3706 245.215 57.4644C249.141 60.4646 251.907 64.731 253.045 69.5392C253.243 70.2808 253.382 71.0369 253.46 71.8003C253.548 72.3497 253.589 72.9054 253.583 73.4616C253.583 73.8769 253.583 74.2153 253.583 74.4922C253.602 74.6195 253.612 74.748 253.614 74.8767Z" fill="#263238"/>
<path d="M210.929 72.5694C210.929 72.6925 210.145 72.2925 208.93 71.8926C207.341 71.3584 205.664 71.1389 203.992 71.2466C202.338 71.3693 200.722 71.797 199.224 72.5079C198.07 73.077 197.424 73.5692 197.347 73.4616C197.27 73.3539 197.809 72.7386 198.885 72.0157C200.401 71.1021 202.113 70.564 203.879 70.4463C205.645 70.3286 207.414 70.6346 209.037 71.3389C210.376 71.9234 210.991 72.5079 210.929 72.5694Z" fill="#263238"/>
<path d="M219.589 18.9482C219.912 17.3023 219.359 16.3794 220.297 15.7026C221.235 15.0258 223.373 16.9639 224.081 17.7638C224.327 18.0253 225.065 17.0101 225.358 16.8255C225.678 16.166 225.866 15.45 225.911 14.7182C225.773 13.5645 223.973 13.18 223.127 12.4724C222.254 11.7054 221.233 11.1244 220.128 10.765C219.677 10.5422 219.176 10.4406 218.675 10.4703C218.173 10.4999 217.688 10.6598 217.267 10.9342C217.017 11.2295 216.83 11.5732 216.719 11.9437C216.608 12.3142 216.575 12.7036 216.621 13.0877C216.616 13.8572 216.762 14.6202 217.051 15.3334C217.341 16.051 217.89 16.6332 218.589 16.9639" fill="#263238"/>
<path d="M123.852 55.2802C123.852 55.2802 139.434 60.9869 147.54 64.4324L147.079 56.4646L124.421 47.4969C124.421 47.4969 123.837 53.419 123.852 55.2802Z" fill="#EBEBEB"/>
<path d="M125.314 42.8978C129.079 44.0639 132.763 45.477 136.343 47.1278C140.041 48.5369 143.638 50.1969 147.11 52.0962C143.345 50.9301 139.661 49.517 136.081 47.8662C132.383 46.4571 128.786 44.7971 125.314 42.8978Z" fill="#EBEBEB"/>
<path d="M130.006 210.745L128.806 173.044C128.806 173.044 136.297 207.545 175.536 207.099C213.022 206.669 212.345 176.705 212.345 176.705L213.683 191.902V253.291L189.226 353.443L157.985 357.35L123.468 220.451L130.006 210.745Z" fill="#3B82F6"/>
<path d="M208.853 198.685C208.736 198.969 208.587 199.237 208.407 199.485C207.937 200.243 207.424 200.972 206.868 201.67C204.895 204.265 202.541 206.547 199.885 208.438C195.944 211.258 191.525 213.343 186.841 214.59C181.104 216.13 175.123 216.542 169.229 215.805C163.359 214.997 157.65 213.279 152.309 210.714C147.974 208.64 143.852 206.146 140.003 203.269C137.399 201.359 134.904 199.305 132.528 197.116C131.682 196.347 131.066 195.701 130.636 195.271C130.406 195.068 130.2 194.841 130.021 194.594C130.281 194.757 130.524 194.948 130.743 195.163L132.743 196.886C134.466 198.424 137.019 200.47 140.342 202.854C144.21 205.641 148.33 208.061 152.647 210.083C157.926 212.573 163.554 214.244 169.337 215.036C175.124 215.763 180.996 215.382 186.641 213.914C191.255 212.715 195.627 210.727 199.562 208.038C202.205 206.212 204.581 204.027 206.622 201.546C208.099 199.701 208.791 198.639 208.853 198.685Z" fill="#263238"/>
<path d="M181.627 520.567L181.058 342.598L130.513 212.76L128.821 173.675L98.0572 196.963C98.0572 196.963 53.2498 351.197 52.4961 345.875C51.7424 340.553 52.4961 520.567 52.4961 520.567H181.627Z" fill="#EBEBEB"/>
<path d="M98.4727 222.312L104.718 227.05L100.334 255.845L174.105 333.123L107.102 245.123L112.809 222.312H98.4727Z" fill="#E0E0E0"/>
<path d="M184.396 429.398L71.1695 396.204L67.4163 310.204L98.4723 196.901C98.4723 196.901 24.4548 233.833 19.4095 257.367C14.3642 280.902 2.22794 337.999 0.951243 379.3C-0.202398 416.216 -0.371606 440.827 8.05766 452.687C32.2072 486.434 191.317 492.464 254.875 452.687" fill="#EBEBEB"/>
<path d="M175.535 334.984C175.535 334.984 175.397 334.861 175.166 334.569C174.936 334.277 174.566 333.831 174.151 333.308L170.306 328.386C166.952 324.048 162.169 317.834 156.277 310.173L110.239 249.923L106.778 245.308L106.655 245.154V244.97C108.624 237.094 110.547 229.449 112.377 222.158L112.747 222.65H98.4107H98.0415V222.281C98.0415 213.052 98.0415 204.438 98.0415 196.87V196.717L98.1646 196.624L120.422 179.704L126.575 175.09L128.113 173.905C128.288 173.761 128.479 173.637 128.682 173.536L128.175 173.982L126.636 175.228L120.622 179.935L98.5337 197.07L98.6568 196.824C98.6568 204.392 98.6568 212.929 98.6568 222.235L98.2876 221.881H112.624H113.239L113.116 222.374L107.424 245.185L107.348 244.846L110.824 249.384L156.662 309.789L170.506 328.139C172.044 330.293 173.351 331.969 174.228 333.154C174.628 333.708 174.936 334.154 175.182 334.477L175.535 334.984Z" fill="#263238"/>
<path d="M226.003 190.195C216.974 174.413 212.283 176.043 212.283 176.043L212.759 181.673V193.502L208.468 244.262L181.042 354.535L181.611 520.567H285.3L298.206 317.895L297.037 230.572L226.003 190.195Z" fill="#EBEBEB"/>
<path d="M297.053 230.572C297.053 230.572 323.894 250.384 326.278 282.271C328.17 308.158 332.431 379.053 333.277 394.481C334.507 418.508 315.788 474.79 267.058 458.855C237.832 449.287 129.882 412.601 129.882 412.601L137.066 366.748L265.197 374.439L267.75 267.565L297.053 230.572Z" fill="#EBEBEB"/>
<path d="M181.058 337.953C181.097 337.784 181.154 337.619 181.227 337.461C181.35 337.107 181.534 336.63 181.765 336.046C182.273 334.754 183.011 332.969 183.934 330.631L192.056 310.758L204.177 281.317C205.33 278.564 206.469 275.687 207.899 272.872C209.33 270.057 210.883 267.243 212.514 264.428C216.049 258.688 219.89 253.143 224.019 247.815C226.111 245.123 228.218 242.493 230.403 239.97V240.386L225.88 228.896L225.727 228.511L226.111 228.373L244.985 221.989L244.785 222.512C236.017 207.868 228.618 195.501 223.358 186.734C220.774 182.396 218.559 178.92 216.205 177.505C215.319 176.97 214.353 176.581 213.344 176.351C212.986 176.284 212.632 176.196 212.283 176.09C212.644 176.114 213.004 176.16 213.36 176.228C214.405 176.416 215.41 176.786 216.328 177.32C217.755 178.248 218.988 179.444 219.958 180.843C221.317 182.659 222.575 184.549 223.727 186.503L245.415 222.158L245.646 222.543L245.215 222.681L226.342 229.157L226.573 228.649L231.11 240.14L231.203 240.355L231.033 240.54C228.88 243.031 226.773 245.662 224.696 248.354C220.582 253.643 216.752 259.148 213.221 264.843C211.575 267.642 209.96 270.396 208.607 273.211C207.253 276.026 206.053 278.825 204.9 281.594C200.285 292.638 196.101 302.59 192.594 310.973C189.087 319.356 186.226 326.032 184.242 330.739C183.257 333.031 182.473 334.831 181.934 336.107C181.673 336.692 181.473 337.138 181.304 337.492C181.243 337.656 181.16 337.811 181.058 337.953Z" fill="#263238"/>
<path d="M78.0761 286.593C77.8256 285.838 77.6504 285.06 77.553 284.27C77.3223 283.532 76.9993 282.655 76.6455 281.64C76.2917 280.625 75.6765 279.517 74.9689 278.348C73.3136 275.594 71.3808 273.017 69.2007 270.657C66.5031 267.791 63.5419 265.185 60.3561 262.874C54.5728 258.647 47.9969 255.628 41.0211 253.999C38.8986 253.549 36.7432 253.271 34.5761 253.168C33.7776 253.173 32.9802 253.111 32.1919 252.983C32.9865 252.871 33.7895 252.829 34.5915 252.86C36.7846 252.836 38.9747 253.032 41.1288 253.445C48.2449 254.929 54.9593 257.924 60.8176 262.228C64.0548 264.556 67.0443 267.211 69.7391 270.15C71.9323 272.566 73.8513 275.217 75.4611 278.056C76.1533 279.271 76.5994 280.456 76.9993 281.455C77.3992 282.455 77.6146 283.424 77.7992 284.178C77.9517 284.975 78.0443 285.782 78.0761 286.593Z" fill="#263238"/>
<path d="M20.3016 254.552C20.3016 254.552 20.2094 254.906 19.994 255.568C19.7787 256.229 19.3941 257.229 19.0711 258.644C18.3174 261.305 17.3637 265.274 16.3024 270.457C14.1643 280.825 11.534 295.991 8.61144 314.972C7.15016 324.478 5.53506 334.969 3.99688 346.213C3.2124 351.858 2.72019 357.734 2.32026 363.825C1.92033 369.916 1.5973 376.131 1.35119 382.653C0.889735 395.589 0.612829 409.248 0.981994 423.476C1.10505 427.029 1.22811 430.629 1.52037 434.244C1.61266 436.059 1.92029 437.843 2.13563 439.643C2.46416 441.441 2.90078 443.219 3.4431 444.965C4.53772 448.494 6.26844 451.794 8.5499 454.701C10.8377 457.658 13.8459 459.978 17.2868 461.439C24.6092 465.03 32.2448 467.944 40.0981 470.145C48.0506 472.529 56.2645 474.452 64.6015 476.159C82.7417 479.904 101.16 482.148 119.669 482.866C128.437 483.091 137.211 482.865 145.956 482.189C154.524 481.589 162.876 480.651 170.952 479.497C186.179 477.339 201.188 473.85 215.805 469.068C228.322 464.935 240.457 459.727 252.076 453.502V454.009L202.454 436.366L189.056 431.582L185.595 430.321C184.811 430.029 184.426 429.86 184.426 429.86L185.611 430.244L189.102 431.429L202.546 436.043L252.383 453.425L252.983 453.625L252.43 453.932C240.79 460.207 228.629 465.461 216.082 469.637C201.434 474.463 186.388 477.989 171.121 480.174C163.03 481.389 154.662 482.297 146.079 482.896C137.309 483.583 128.509 483.819 119.715 483.604C101.159 482.896 82.6945 480.652 64.5092 476.897C56.1414 475.175 47.9121 473.252 39.8982 470.868C31.9991 468.638 24.3179 465.698 16.9484 462.085C13.3637 460.578 10.2277 458.172 7.84235 455.101C5.50951 452.114 3.7423 448.726 2.62787 445.103C2.06991 443.328 1.62297 441.52 1.28965 439.689C1.05892 437.843 0.766676 436.028 0.674385 434.213C0.382129 430.583 0.259079 426.968 0.151406 423.445C-0.217759 409.171 0.151404 395.512 0.582097 382.56C0.828207 376.1 1.16147 369.819 1.58191 363.718C1.99722 357.565 2.50482 351.72 3.30467 346.075C4.84286 334.769 6.47334 324.325 7.91924 314.834C10.9956 295.853 13.6721 280.702 15.9024 270.35C17.0099 265.166 17.9944 261.197 18.7942 258.536C19.1326 257.198 19.5633 256.214 19.7787 255.552C19.994 254.891 20.3016 254.552 20.3016 254.552Z" fill="#263238"/>
<path d="M230.51 192.487C230.51 192.487 230.695 192.487 231.018 192.671C231.487 192.881 231.944 193.117 232.387 193.379C234.036 194.311 235.583 195.415 237.001 196.67C241.731 200.837 245.169 206.271 246.907 212.329C248.728 218.28 249.989 224.387 250.676 230.572C250.953 232.941 251.091 234.864 251.184 236.186C251.261 236.877 251.261 237.573 251.184 238.263C251.01 237.592 250.897 236.908 250.845 236.217C250.645 234.756 250.384 232.879 250.091 230.649C249.24 224.524 247.908 218.476 246.108 212.56C244.397 206.637 241.111 201.289 236.602 197.086C234.687 195.404 232.651 193.867 230.51 192.487Z" fill="#263238"/>
<path d="M249.153 365.594C247.757 365.592 246.363 365.479 244.985 365.256L245.231 363.718C250.737 364.594 255.367 363.718 258.982 361.026C263.597 357.688 266.473 351.704 267.704 343.244V342.921C268.211 339.568 268.903 273.78 268.903 261.29C268.903 241.77 251.783 239.109 251.045 239.001C250.307 238.894 234.786 236.279 226.526 257.583C217.882 279.902 204.053 322.91 203.146 327.955C203.023 328.57 202.854 329.339 202.669 330.216C201.223 336.676 198.239 350.105 207.191 357.826C217.174 366.456 225.05 363.118 225.373 362.979L226.003 364.379C225.634 364.533 216.959 368.301 206.191 358.995C196.532 350.658 199.654 336.63 201.162 329.878C201.362 329.016 201.515 328.339 201.623 327.678C202.546 322.602 216.42 279.41 225.096 257.029C233.771 234.648 251.122 237.448 251.245 237.494C251.368 237.54 270.38 240.416 270.38 261.29C270.38 271.58 269.703 339.583 269.165 343.152V343.46C267.873 352.35 264.735 358.672 259.828 362.272C256.722 364.503 252.977 365.669 249.153 365.594Z" fill="#263238"/>
<path d="M269.719 273.887C269.037 271.18 267.959 268.588 266.519 266.196C264.883 263.673 262.828 261.446 260.444 259.613C257.508 257.396 254.138 255.824 250.553 254.998C243.969 253.549 237.087 254.447 231.095 257.536C228.648 258.874 226.37 260.501 224.312 262.382C224.409 262.213 224.528 262.058 224.665 261.92C225.017 261.48 225.403 261.069 225.819 260.69C227.314 259.256 228.996 258.029 230.818 257.044C236.895 253.718 243.974 252.712 250.738 254.214C254.431 255.086 257.894 256.744 260.89 259.075C263.341 260.974 265.426 263.304 267.042 265.95C268.124 267.723 268.924 269.654 269.411 271.672C269.556 272.218 269.664 272.773 269.734 273.334C269.734 273.672 269.75 273.887 269.719 273.887Z" fill="#263238"/>
<path d="M44.9341 0H44.1616H41.8912C41.4025 0 40.8349 0 40.22 0L38.2335 0.283791L35.9001 0.788308L33.2829 1.43472C28.8073 2.57053 24.547 4.42909 20.67 6.93711C14.923 10.5904 10.0881 15.5103 6.53557 21.3201C2.98301 27.1299 0.806962 33.6756 0.173993 40.456C-0.00277753 42.4901 -0.0449153 44.5336 0.0478611 46.5732C0.0478611 47.598 0.0478448 48.6544 0.252805 49.7265L0.725794 52.8797C1.52372 57.2113 2.95263 61.4024 4.9669 65.3192C7.12194 69.4067 9.85676 73.1612 13.0865 76.4659C16.5341 79.8478 20.4793 82.6818 24.785 84.8692C29.2451 87.1611 34.0758 88.645 39.0533 89.2522C40.312 89.4368 41.5811 89.5422 42.853 89.5676C44.13 89.5676 45.4071 89.6937 46.6999 89.5676C49.2922 89.4528 51.8707 89.1258 54.4096 88.5901C59.873 87.408 65.0694 85.2215 69.7343 82.1417H69.2771L84.8856 88.4482L85.8158 88.8265L85.5477 87.8648L80.9913 71.1842V71.5941C85.2256 65.9752 88.0823 59.441 89.3316 52.5171C89.9196 49.2942 90.1207 46.0126 89.9307 42.7421C89.9055 41.1564 89.7579 39.5751 89.4893 38.0122C89.3632 37.2397 89.2528 36.4356 89.1424 35.7261C89.0321 35.0166 88.7641 34.2441 88.5906 33.5189C85.946 23.2486 79.7308 14.2556 71.0586 8.1511C67.8736 5.8511 64.3815 4.00952 60.6845 2.68025L58.3511 1.82887L56.1281 1.27706L54.0943 0.788308C53.4478 0.662179 52.8172 0.599114 52.2338 0.504517C51.0514 0.346855 50.0108 0.157661 49.0806 0.110363L46.7788 0.031533H45.3756L46.7788 0.141896L49.0491 0.299555C49.9478 0.299555 50.9883 0.599117 52.2023 0.772545C60.675 2.24056 68.539 6.13741 74.8391 11.9897C81.1393 17.842 85.6043 25.3979 87.6919 33.7396C87.8654 34.4648 88.0861 35.1743 88.228 35.9153L88.5591 38.1541C88.8071 39.682 88.9441 41.2259 88.969 42.7736C89.1485 45.9826 88.9368 49.2016 88.3384 52.3594C87.0988 59.1389 84.2853 65.5327 80.1242 71.0266L79.9823 71.2V71.4365C81.4485 76.8285 82.9779 82.4728 84.5387 88.1328L85.2009 87.5495L69.5766 81.243L69.3401 81.1484L69.1194 81.2903C64.5553 84.303 59.4712 86.4415 54.1258 87.5968C51.6512 88.1298 49.1349 88.4463 46.6053 88.5428C45.3503 88.6138 44.0923 88.6138 42.8372 88.5428C41.5911 88.5243 40.3478 88.4189 39.1164 88.2274C34.2562 87.6404 29.5379 86.1993 25.1791 83.9706C20.9555 81.8437 17.0885 79.0725 13.7171 75.7564C10.5439 72.5249 7.85668 68.8498 5.73945 64.8462C3.74438 61.0186 2.32587 56.9171 1.52988 52.6748C1.37222 51.65 1.21456 50.6094 1.05689 49.6003C0.899233 48.5913 0.930757 47.535 0.851927 46.4471C0.748939 44.4502 0.780539 42.4486 0.94652 40.456C1.54198 33.786 3.64707 27.3389 7.10243 21.6027C10.5578 15.8665 15.2729 10.9916 20.8907 7.34703C24.7058 4.81467 28.9071 2.91905 33.3302 1.73428L35.9001 1.05633L38.265 0.788308L40.2516 0.45722C40.8665 0.45722 41.4183 0.378386 41.907 0.331088L44.1616 0.173429L44.9341 0Z" fill="#263238"/>
<path d="M47.5466 30.8103H41.5068V57.8885H47.5466V30.8103Z" fill="#3B82F6"/>
<path d="M30.9829 41.3249V47.3646H58.0611V41.3249H30.9829Z" fill="#3B82F6"/>
<path d="M67.0108 44.418C66.9883 44.297 66.973 44.1748 66.9651 44.052C66.9651 43.7866 66.9194 43.4297 66.8919 42.9813C66.8919 42.7434 66.8919 42.478 66.837 42.1943C66.7821 41.9106 66.7455 41.5903 66.6906 41.2792C66.5891 40.4938 66.43 39.7169 66.2147 38.9548C65.6847 36.8509 64.8393 34.8392 63.7073 32.9883C61.04 28.5164 56.8954 25.1158 51.9886 23.3733C47.0819 21.6308 41.7208 21.6557 36.8304 23.4436C35.8287 23.802 34.8532 24.2301 33.9112 24.7248C32.9564 25.2494 32.0391 25.8395 31.1659 26.491C30.2749 27.1517 29.4282 27.8701 28.631 28.6415C27.8463 29.4561 27.1157 30.3212 26.4439 31.2312C25.0587 33.098 23.9806 35.174 23.2501 37.3808C21.7129 41.9557 21.7129 46.9078 23.2501 51.4827C23.9786 53.6904 25.0569 55.7667 26.4439 57.6323C27.1111 58.5459 27.8419 59.4113 28.631 60.222C29.4257 60.9989 30.2726 61.7205 31.1659 62.3817C32.0391 63.0331 32.9564 63.6233 33.9112 64.1479C34.855 64.6388 35.8302 65.0667 36.8304 65.429C41.7211 67.2033 47.0764 67.2223 51.9795 65.4828C56.8825 63.7433 61.0284 60.3534 63.7073 55.8936C64.8412 54.0403 65.6866 52.0253 66.2147 49.9179C66.4308 49.159 66.5899 48.3851 66.6906 47.6026C66.7455 47.2549 66.8096 46.9437 66.837 46.6875C66.8645 46.4313 66.837 46.1384 66.8919 45.9005C66.8919 45.4429 66.9468 45.0952 66.9651 44.8298C66.9721 44.7069 66.9874 44.5846 67.0108 44.4638C67.0211 44.5856 67.0211 44.708 67.0108 44.8298C67.0108 45.0952 67.0108 45.4521 67.0108 45.9005V46.6967C67.0108 46.9895 66.9285 47.3006 66.8919 47.6118C66.8009 48.402 66.6541 49.1849 66.4526 49.9545C65.946 52.0905 65.1159 54.1365 63.991 56.0217C62.3407 58.8072 60.1147 61.2082 57.4618 63.0641C54.8089 64.92 51.7904 66.188 48.6079 66.7834C44.6273 67.5214 40.5221 67.1898 36.7115 65.8225C35.693 65.4542 34.6996 65.0201 33.7373 64.5231C31.7707 63.4396 29.9579 62.0977 28.3473 60.5332C27.5426 59.7077 26.7965 58.827 26.1145 57.8976C24.6907 55.9937 23.5873 53.8702 22.8475 51.6108C22.0934 49.2834 21.6954 46.8553 21.667 44.4089C21.7006 41.9659 22.0984 39.5416 22.8475 37.2161C23.5912 34.9612 24.6944 32.8413 26.1145 30.9384C26.7988 30.0079 27.5447 29.1244 28.3473 28.2937C29.1629 27.51 30.0279 26.7795 30.9371 26.1066C33.4471 24.2552 36.3111 22.9399 39.351 22.2425C42.391 21.5451 45.5419 21.4805 48.6079 22.0527C51.7748 22.6611 54.776 23.9362 57.4124 25.7932C60.0487 27.6502 62.26 30.0466 63.8995 32.8235C65.0226 34.7063 65.8527 36.749 66.3611 38.8816C66.5618 39.6544 66.7086 40.4403 66.8004 41.2334C66.8004 41.572 66.9011 41.8923 66.9194 42.1485V42.9355C66.9194 43.3931 66.9194 43.75 66.9194 44.0154C66.9621 44.1465 66.9927 44.2813 67.0108 44.418Z" fill="#3B82F6"/>
</g>
<defs>
<clipPath id="clip0_8981_10717">
<rect y="66.6667" width="333.333" height="333.333" rx="166.667" fill="white"/>
</clipPath>
<clipPath id="clip1_8981_10717">
<rect width="333.333" height="268.333" fill="white"/>
</clipPath>
</defs>
</svg>
