<svg width="334" height="400" viewBox="0 0 334 400" fill="none" xmlns="http://www.w3.org/2000/svg">
<g clip-path="url(#clip0_8991_17920)">
<rect y="77.939" width="333.333" height="322.061" rx="161.031" fill="#EFF6FF"/>
<path d="M68.2985 -17.0811H3.81641V252.241H68.2985V-17.0811Z" fill="#F5F5F5"/>
<path d="M68.2982 -17.0811H36.0645V251.582H68.2982V-17.0811Z" fill="#EBEBEB"/>
<path d="M54.5315 84.4531H49.0688V95.9641H54.5315V84.4531Z" fill="#E0E0E0"/>
<path d="M68.5765 100.475C68.5765 100.592 61.3565 100.694 52.467 100.694C43.5774 100.694 36.3574 100.592 36.3574 100.475C36.3574 100.357 43.5774 100.255 52.467 100.255C61.3565 100.255 68.5765 100.357 68.5765 100.475Z" fill="#E0E0E0"/>
<path d="M54.5315 107.402H49.0688V118.913H54.5315V107.402Z" fill="#E0E0E0"/>
<path d="M54.5315 130.658H49.0688V142.169H54.5315V130.658Z" fill="#E0E0E0"/>
<path d="M68.5765 123.423C68.5765 123.555 61.3565 123.643 52.467 123.643C43.5774 123.643 36.3574 123.555 36.3574 123.423C36.3574 123.291 43.5774 123.204 52.467 123.204C61.3565 123.204 68.5765 123.306 68.5765 123.423Z" fill="#E0E0E0"/>
<path d="M22.0202 84.4531H16.5576V95.9641H22.0202V84.4531Z" fill="#FAFAFA"/>
<path d="M36.0643 100.475C36.0643 100.592 28.8443 100.694 19.9548 100.694C11.0652 100.694 3.84521 100.592 3.84521 100.475C3.84521 100.357 11.0652 100.255 19.9548 100.255C28.8443 100.255 36.0643 100.357 36.0643 100.475Z" fill="#E0E0E0"/>
<path d="M22.0202 107.651H16.5576V119.162H22.0202V107.651Z" fill="#FAFAFA"/>
<path d="M36.0643 123.702C36.0643 123.819 28.8443 123.921 19.9548 123.921C11.0652 123.921 3.84521 123.819 3.84521 123.702C3.84521 123.584 11.0652 123.482 19.9548 123.482C28.8443 123.482 36.0643 123.555 36.0643 123.702Z" fill="#E0E0E0"/>
<path d="M22.0202 130.849H16.5576V142.36H22.0202V130.849Z" fill="#FAFAFA"/>
<path d="M437.763 269.039H329.595V411.696H437.763V269.039Z" fill="#EBEBEB"/>
<path d="M387.033 321.248C387.033 321.512 374.174 321.732 358.314 321.732C342.453 321.732 329.595 321.512 329.595 321.248C329.595 320.985 342.453 320.765 358.314 320.765C374.174 320.765 387.033 320.985 387.033 321.248Z" fill="#F5F5F5"/>
<path d="M387.033 367.835C387.033 368.113 374.174 368.318 358.314 368.318C342.453 368.318 329.595 368.113 329.595 367.835C329.595 367.557 342.453 367.366 358.314 367.366C374.174 367.366 387.033 367.571 387.033 367.835Z" fill="#F5F5F5"/>
<path d="M445.877 264.074H321.453V269.215H445.877V264.074Z" fill="#E0E0E0"/>
<path d="M438.511 269.698C438.511 269.962 414.332 270.181 384.514 270.181C354.697 270.181 330.518 269.962 330.518 269.698C330.518 269.435 354.697 269.215 384.514 269.215C414.332 269.215 438.511 269.435 438.511 269.698Z" fill="#EBEBEB"/>
<path d="M52.159 251.963H-42.7262L-43.1362 102.013H51.749L52.159 251.963Z" fill="#EBEBEB"/>
<path d="M51.7346 102.013H4.29932V251.963H51.7346V102.013Z" fill="#E0E0E0"/>
<path d="M1.20952 72.5029H-32.2983V102.027H1.20952V72.5029Z" fill="#EBEBEB"/>
<path d="M1.1949 72.5029H-6.78662V102.027H1.1949V72.5029Z" fill="#E0E0E0"/>
<path d="M54.5175 100.299H-51.0439V102.027H54.5175V100.299Z" fill="#E0E0E0"/>
<path d="M4.29907 138.478C4.29907 138.654 -6.31859 138.801 -19.4112 138.801C-32.5039 138.801 -43.1362 138.654 -43.1362 138.478C-43.1362 138.303 -32.5186 138.156 -19.4112 138.156C-6.30394 138.156 4.29907 138.347 4.29907 138.478Z" fill="#E0E0E0"/>
<path d="M31.4659 114.9H23.4404V131.83H31.4659V114.9Z" fill="#F5F5F5"/>
<path d="M52.1599 138.478C52.1599 138.654 41.5422 138.801 28.4349 138.801C15.3276 138.801 4.70996 138.654 4.70996 138.478C4.70996 138.303 15.3276 138.156 28.4349 138.156C41.5422 138.156 52.1599 138.347 52.1599 138.478Z" fill="#EBEBEB"/>
<path d="M31.4659 148.51H23.4404V165.44H31.4659V148.51Z" fill="#F5F5F5"/>
<path d="M52.1599 172.03C52.1599 172.221 41.5422 172.352 28.4349 172.352C15.3276 172.352 4.70996 172.221 4.70996 172.03C4.70996 171.84 15.3276 171.708 28.4349 171.708C41.5422 171.708 52.1599 171.913 52.1599 172.03Z" fill="#EBEBEB"/>
<path d="M31.4659 183.146H23.4404V200.076H31.4659V183.146Z" fill="#F5F5F5"/>
<path d="M52.1599 206.725C52.1599 206.915 41.5422 207.061 28.4349 207.061C15.3276 207.061 4.70996 206.915 4.70996 206.725C4.70996 206.534 15.3276 206.402 28.4349 206.402C41.5422 206.402 52.1599 206.549 52.1599 206.725Z" fill="#EBEBEB"/>
<path d="M31.4659 217.781H23.4404V234.711H31.4659V217.781Z" fill="#F5F5F5"/>
<path d="M52.1599 241.36C52.1599 241.551 41.5422 241.697 28.4349 241.697C15.3276 241.697 4.70996 241.551 4.70996 241.36C4.70996 241.17 15.3276 241.038 28.4349 241.038C41.5422 241.038 52.1599 241.185 52.1599 241.36Z" fill="#EBEBEB"/>
<path d="M4.29907 172.601C4.29907 172.792 -6.31859 172.938 -19.4112 172.938C-32.5039 172.938 -43.1362 172.792 -43.1362 172.601C-43.1362 172.411 -32.5186 172.279 -19.4112 172.279C-6.30394 172.279 4.29907 172.426 4.29907 172.601Z" fill="#E0E0E0"/>
<path d="M4.29907 206.739C4.29907 206.915 -6.31859 207.061 -19.4112 207.061C-32.5039 207.061 -43.1362 206.915 -43.1362 206.739C-43.1362 206.563 -32.5186 206.417 -19.4112 206.417C-6.30394 206.417 4.29907 206.563 4.29907 206.739Z" fill="#E0E0E0"/>
<path d="M4.29907 240.862C4.29907 241.038 -6.31859 241.184 -19.4112 241.184C-32.5039 241.184 -43.1362 241.038 -43.1362 240.862C-43.1362 240.686 -32.5186 240.54 -19.4112 240.54C-6.30394 240.54 4.29907 240.701 4.29907 240.862Z" fill="#E0E0E0"/>
<path d="M104.926 209.024H-419.044V452.395H104.926V209.024Z" fill="#E0E0E0"/>
<path d="M104.911 209.024C104.911 211.206 105.028 302.181 105.189 452.395V452.673H104.911L-419.015 452.776H-419.425V452.395C-419.425 366.78 -419.425 284.446 -419.425 209.024V208.643H-419.059L104.896 209.009L-419.059 209.361L-418.708 209.009C-418.708 284.431 -418.708 366.766 -418.708 452.38L-419.088 452L104.838 452.102L104.56 452.38C104.779 302.181 104.911 211.206 104.911 209.024Z" fill="#263238"/>
<path d="M98.482 370.852H-419.044V452.38H98.482V370.852Z" fill="#3B82F6"/>
<path d="M99.58 392.512H-2.04199V436.842H99.58V392.512Z" fill="#455A64"/>
<path d="M87.8638 392.819V436.623C87.8638 436.712 87.8992 436.798 87.9624 436.861C88.0256 436.924 88.1112 436.959 88.2006 436.959C88.2899 436.959 88.3756 436.924 88.4387 436.861C88.5019 436.798 88.5374 436.712 88.5374 436.623V392.819C88.5374 392.73 88.5019 392.644 88.4387 392.581C88.3756 392.518 88.2899 392.482 88.2006 392.482C88.1112 392.482 88.0256 392.518 87.9624 392.581C87.8992 392.644 87.8638 392.73 87.8638 392.819Z" fill="#E0E0E0"/>
<path d="M66.1455 392.819V436.623C66.1615 436.698 66.203 436.766 66.263 436.814C66.3229 436.863 66.3978 436.89 66.475 436.89C66.5522 436.89 66.6271 436.863 66.6871 436.814C66.7471 436.766 66.7885 436.698 66.8046 436.623V392.819C66.7885 392.744 66.7471 392.676 66.6871 392.627C66.6271 392.579 66.5522 392.552 66.475 392.552C66.3978 392.552 66.3229 392.579 66.263 392.627C66.203 392.676 66.1615 392.744 66.1455 392.819Z" fill="#E0E0E0"/>
<path d="M44.4121 392.819V436.623C44.4121 436.712 44.4476 436.798 44.5107 436.861C44.5739 436.924 44.6596 436.959 44.749 436.959C44.8383 436.959 44.924 436.924 44.9871 436.861C45.0503 436.798 45.0858 436.712 45.0858 436.623V392.819C45.0858 392.73 45.0503 392.644 44.9871 392.581C44.924 392.518 44.8383 392.482 44.749 392.482C44.6596 392.482 44.5739 392.518 44.5107 392.581C44.4476 392.644 44.4121 392.73 44.4121 392.819Z" fill="#E0E0E0"/>
<path d="M22.6792 392.819V436.623C22.6792 436.712 22.7147 436.798 22.7778 436.861C22.841 436.924 22.9267 436.959 23.0161 436.959C23.1054 436.959 23.1911 436.924 23.2542 436.861C23.3174 436.798 23.3529 436.712 23.3529 436.623V392.819C23.3529 392.73 23.3174 392.644 23.2542 392.581C23.1911 392.518 23.1054 392.482 23.0161 392.482C22.9267 392.482 22.841 392.518 22.7778 392.581C22.7147 392.644 22.6792 392.73 22.6792 392.819Z" fill="#E0E0E0"/>
<g opacity="0.3">
<path d="M98.3053 392.512H-2.04248V399.058H98.3053V392.512Z" fill="black"/>
</g>
<path d="M82.343 287.434H5.48584V336.905H82.343V287.434Z" fill="#455A64"/>
<path d="M5.33929 325.994H81.7864C81.8738 325.994 81.9576 325.959 82.0194 325.897C82.0812 325.836 82.1159 325.752 82.1159 325.664C82.1159 325.577 82.0812 325.493 82.0194 325.431C81.9576 325.37 81.8738 325.335 81.7864 325.335H5.33929C5.2519 325.335 5.16805 325.37 5.10626 325.431C5.04446 325.493 5.00977 325.577 5.00977 325.664C5.00977 325.752 5.04446 325.836 5.10626 325.897C5.16805 325.959 5.2519 325.994 5.33929 325.994Z" fill="#E0E0E0"/>
<path d="M43.5776 287.624V337.095C43.5936 337.17 43.6351 337.238 43.6951 337.287C43.7551 337.335 43.83 337.362 43.9072 337.362C43.9844 337.362 44.0592 337.335 44.1192 337.287C44.1792 337.238 44.2207 337.17 44.2367 337.095V287.624C44.2207 287.548 44.1792 287.481 44.1192 287.432C44.0592 287.383 43.9844 287.357 43.9072 287.357C43.83 287.357 43.7551 287.383 43.6951 287.432C43.6351 287.481 43.5936 287.548 43.5776 287.624Z" fill="#E0E0E0"/>
<g opacity="0.3">
<path d="M5.48584 287.434V293.116L77.0415 293.218L77.144 336.905H82.3284V287.434H5.48584Z" fill="black"/>
</g>
<path d="M98.4673 351.33H-418.913V356.221H98.4673V351.33Z" fill="white"/>
<path d="M96.1244 269.171C96.1244 269.361 -19.3224 269.508 -161.628 269.508C-303.934 269.508 -419.513 269.361 -419.513 269.171C-419.513 268.98 -304.095 268.819 -161.658 268.819C-19.2199 268.819 96.1244 268.966 96.1244 269.171Z" fill="#263238"/>
<path d="M40.9272 239.28H23.895V256.327H40.9272V239.28Z" fill="#455A64"/>
<path d="M68.9433 239.354H51.9111V256.4H68.9433V239.354Z" fill="#455A64"/>
<g opacity="0.3">
<path d="M23.895 242.795H36.8998V256.327H40.9272V239.28H23.895V242.795Z" fill="black"/>
</g>
<g opacity="0.3">
<path d="M52.1602 242.795H65.165V256.327H69.1923V239.28H52.1602V242.795Z" fill="black"/>
</g>
<g opacity="0.3">
<path d="M16.7923 375.933H-1.1333V386.712H16.7923V375.933Z" fill="white"/>
</g>
<path d="M561.587 325.657H288.282V452.381H561.587V325.657Z" fill="#E0E0E0"/>
<path d="M561.587 452.395C561.587 452.395 561.587 451.619 561.587 450.125C561.587 448.632 561.587 446.42 561.587 443.535C561.587 437.75 561.587 429.241 561.587 418.287C561.587 396.393 561.499 364.745 561.44 325.657L561.719 325.935L288.428 326.038L288.808 325.657C288.808 370.237 288.808 413.103 288.808 452.395L288.442 452.029L484.686 452.205L541.362 452.307H556.505H560.239H556.373H541.303L484.715 452.41L288.237 452.571H287.886V452.22C287.886 412.927 287.886 370.061 287.886 325.481V325.101H288.281L561.572 325.203H561.85V325.481C561.85 364.642 561.733 396.349 561.704 418.287C561.704 429.212 561.704 437.706 561.704 443.476C561.704 446.332 561.704 448.529 561.704 450.008C561.704 451.487 561.587 452.395 561.587 452.395Z" fill="#263238"/>
<path d="M343.025 355.225V361.083H323.693V337.9H342.585V343.758H331.397V346.482H341.224V352.165H331.397V355.211L343.025 355.225Z" fill="white"/>
<path d="M561.587 369.255H305.196V373.224H561.587V369.255Z" fill="#3B82F6"/>
<path d="M305.226 2.6167H98.4673V452.395H305.226V2.6167Z" fill="#3B82F6"/>
<g opacity="0.3">
<path d="M289.469 387.664H116.174V452.38H289.469V387.664Z" fill="black"/>
</g>
<path d="M305.226 51.9409H170.375V371.232H305.226V51.9409Z" fill="#455A64"/>
<path d="M305.226 375.626H98.4673V387.664H305.226V375.626Z" fill="#3B82F6"/>
<path d="M150.179 71.1406H130.555V90.7503H150.179V71.1406Z" fill="#455A64"/>
<path d="M150.179 136.296H130.555V155.921H150.179V136.296Z" fill="#455A64"/>
<path d="M150.179 204.704H130.555V224.328H150.179V204.704Z" fill="#455A64"/>
<path d="M150.179 273.11H130.555V292.735H150.179V273.11Z" fill="#455A64"/>
<path d="M150.179 341.518H130.555V361.127H150.179V341.518Z" fill="#455A64"/>
<path d="M162.379 387.664H144.028V452.38H162.379V387.664Z" fill="#3B82F6"/>
<path d="M259.109 387.664H240.758V452.38H259.109V387.664Z" fill="#3B82F6"/>
<path d="M305.372 387.664H288.282V452.38H305.372V387.664Z" fill="#3B82F6"/>
<g opacity="0.3">
<path d="M116.393 105.586H98.4678V116.365H116.393V105.586Z" fill="white"/>
</g>
<g opacity="0.3">
<path d="M116.393 178.108H98.4678V188.887H116.393V178.108Z" fill="white"/>
</g>
<g opacity="0.3">
<path d="M116.393 250.616H98.4678V261.394H116.393V250.616Z" fill="white"/>
</g>
<g opacity="0.3">
<path d="M116.393 321.834H98.4678V332.613H116.393V321.834Z" fill="white"/>
</g>
<path d="M305.227 372.711H168.911V50.4766H305.227V53.4056H171.84V369.782H305.227V372.711Z" fill="#E0E0E0"/>
<path d="M305.226 123.058H170.375V128.447H305.226V123.058Z" fill="#E0E0E0"/>
<path d="M305.226 206.329H170.375V211.718H305.226V206.329Z" fill="#E0E0E0"/>
<path d="M305.226 289.601H170.375V294.99H305.226V289.601Z" fill="#E0E0E0"/>
<path d="M218.411 52.9662V370.851C218.411 370.941 218.446 371.026 218.509 371.09C218.572 371.153 218.658 371.188 218.747 371.188C218.837 371.188 218.922 371.153 218.986 371.09C219.049 371.026 219.084 370.941 219.084 370.851V52.9662C219.084 52.8769 219.049 52.7912 218.986 52.7281C218.922 52.6649 218.837 52.6294 218.747 52.6294C218.658 52.6294 218.572 52.6649 218.509 52.7281C218.446 52.7912 218.411 52.8769 218.411 52.9662Z" fill="#E0E0E0"/>
<path d="M267.457 51.9413V371.203C267.457 371.293 267.492 371.378 267.555 371.441C267.618 371.505 267.704 371.54 267.793 371.54C267.883 371.54 267.968 371.505 268.032 371.441C268.095 371.378 268.13 371.293 268.13 371.203V51.9413C268.13 51.852 268.095 51.7663 268.032 51.7032C267.968 51.64 267.883 51.6045 267.793 51.6045C267.704 51.6045 267.618 51.64 267.555 51.7032C267.492 51.7663 267.457 51.852 267.457 51.9413Z" fill="#E0E0E0"/>
<path d="M171.136 332.965H304.406C304.495 332.965 304.581 332.929 304.644 332.866C304.707 332.803 304.743 332.717 304.743 332.628C304.743 332.539 304.707 332.453 304.644 332.39C304.581 332.327 304.495 332.291 304.406 332.291H171.136C171.047 332.291 170.961 332.327 170.898 332.39C170.835 332.453 170.799 332.539 170.799 332.628C170.799 332.717 170.835 332.803 170.898 332.866C170.961 332.929 171.047 332.965 171.136 332.965Z" fill="#E0E0E0"/>
<path d="M171.136 250.996H304.406C304.495 250.996 304.581 250.961 304.644 250.898C304.707 250.835 304.743 250.749 304.743 250.66C304.743 250.57 304.707 250.485 304.644 250.421C304.581 250.358 304.495 250.323 304.406 250.323H171.136C171.047 250.323 170.961 250.358 170.898 250.421C170.835 250.485 170.799 250.57 170.799 250.66C170.799 250.749 170.835 250.835 170.898 250.898C170.961 250.961 171.047 250.996 171.136 250.996Z" fill="#E0E0E0"/>
<path d="M171.136 169.101H304.406C304.495 169.101 304.581 169.066 304.644 169.003C304.707 168.94 304.743 168.854 304.743 168.765C304.743 168.675 304.707 168.59 304.644 168.526C304.581 168.463 304.495 168.428 304.406 168.428H171.136C171.047 168.428 170.961 168.463 170.898 168.526C170.835 168.59 170.799 168.675 170.799 168.765C170.799 168.854 170.835 168.94 170.898 169.003C170.961 169.066 171.047 169.101 171.136 169.101Z" fill="#E0E0E0"/>
<path d="M171.136 87.9534H304.406C304.495 87.9534 304.581 87.918 304.644 87.8548C304.707 87.7916 304.743 87.7059 304.743 87.6166C304.743 87.5273 304.707 87.4416 304.644 87.3784C304.581 87.3153 304.495 87.2798 304.406 87.2798H171.136C171.047 87.2798 170.961 87.3153 170.898 87.3784C170.835 87.4416 170.799 87.5273 170.799 87.6166C170.799 87.7059 170.835 87.7916 170.898 87.8548C170.961 87.918 171.047 87.9534 171.136 87.9534Z" fill="#E0E0E0"/>
<g opacity="0.3">
<path d="M305.372 76.1055L171.136 160.812V185.885L305.226 105.132L305.372 76.1055Z" fill="white"/>
</g>
<g opacity="0.3">
<path d="M305.372 232.544L171.136 317.251V342.338L305.226 261.57L305.372 232.544Z" fill="white"/>
</g>
<g opacity="0.3">
<path d="M305.372 142.711L171.136 227.418V237.362L305.226 155.906L305.372 142.711Z" fill="white"/>
</g>
<g opacity="0.3">
<path d="M134.099 292.735V275.908H150.164V273.11H130.555V292.735H134.099Z" fill="black"/>
</g>
<g opacity="0.3">
<path d="M134.099 361.142V344.315H150.164V341.518H130.555V361.142H134.099Z" fill="black"/>
</g>
<g opacity="0.3">
<path d="M134.099 155.906V139.079H150.164V136.296H130.555V155.906H134.099Z" fill="black"/>
</g>
<g opacity="0.3">
<path d="M134.099 224.313V207.486H150.164V204.704H130.555V224.313H134.099Z" fill="black"/>
</g>
<g opacity="0.3">
<path d="M134.099 90.765V73.9378H150.164V71.1553H130.555V90.765H134.099Z" fill="black"/>
</g>
<path d="M116.818 387.664H98.4673V452.38H116.818V387.664Z" fill="#3B82F6"/>
<path d="M181.577 391.267H178.238V401.547H181.577V391.267Z" fill="white"/>
<path d="M174.783 394.723V398.062H185.064V394.723H174.783Z" fill="white"/>
<path d="M230.243 394.005H188.094V398.794H230.243V394.005Z" fill="white"/>
<path d="M98.4667 452.79C98.2763 452.79 98.1299 355.65 98.1299 235.839C98.1299 116.028 98.2763 18.8872 98.4667 18.8872C98.6571 18.8872 98.8182 115.998 98.8182 235.839C98.8182 355.679 98.6571 452.79 98.4667 452.79Z" fill="#263238"/>
</g>
<g clip-path="url(#clip1_8991_17920)">
<path d="M104.926 209.024H-419.044V452.395H104.926V209.024Z" fill="#E0E0E0"/>
<path d="M104.911 209.024C104.911 211.206 105.028 302.181 105.189 452.395V452.673H104.911L-419.015 452.776H-419.425V452.395C-419.425 366.78 -419.425 284.446 -419.425 209.024V208.643H-419.059L104.896 209.009L-419.059 209.361L-418.708 209.009C-418.708 284.431 -418.708 366.766 -418.708 452.38L-419.088 452L104.838 452.102L104.56 452.38C104.779 302.181 104.911 211.206 104.911 209.024Z" fill="#263238"/>
<path d="M82.343 287.434H5.48584V336.905H82.343V287.434Z" fill="#455A64"/>
<g opacity="0.3">
<path d="M5.48584 287.434V293.116L77.0415 293.218L77.144 336.905H82.3284V287.434H5.48584Z" fill="black"/>
</g>
<path d="M96.1244 269.171C96.1244 269.361 -19.3224 269.508 -161.628 269.508C-303.934 269.508 -419.513 269.361 -419.513 269.171C-419.513 268.98 -304.095 268.819 -161.658 268.819C-19.2199 268.819 96.1244 268.966 96.1244 269.171Z" fill="#263238"/>
<path d="M305.226 2.6167H98.4673V452.395H305.226V2.6167Z" fill="#3B82F6"/>
<path d="M305.226 51.9409H170.375V371.232H305.226V51.9409Z" fill="#455A64"/>
<path d="M162.188 8.40137V28.9044H155.276V21.3329H148.876V28.9044H141.963V8.40137H148.876V15.7239H155.276V8.40137H162.188Z" fill="#FAFAFA"/>
<path d="M164.707 18.6674C164.707 12.4579 169.598 7.93262 176.291 7.93262C182.984 7.93262 187.875 12.4579 187.875 18.6674C187.875 24.8769 182.969 29.4022 176.291 29.4022C169.613 29.4022 164.707 24.8769 164.707 18.6674ZM180.889 18.6674C180.793 17.7785 180.441 16.9364 179.877 16.2431C179.312 15.5497 178.559 15.0348 177.708 14.7606C176.857 14.4863 175.944 14.4645 175.081 14.6978C174.218 14.931 173.441 15.4094 172.844 16.0749C172.246 16.7405 171.855 17.5648 171.716 18.4482C171.578 19.3316 171.698 20.2362 172.063 21.0526C172.427 21.869 173.021 22.5624 173.771 23.0487C174.521 23.5351 175.397 23.7937 176.291 23.7932C176.942 23.7922 177.586 23.6551 178.181 23.3906C178.776 23.1262 179.309 22.7403 179.746 22.2576C180.183 21.775 180.515 21.2063 180.719 20.588C180.924 19.9697 180.997 19.3155 180.933 18.6674H180.889Z" fill="#FAFAFA"/>
<path d="M189.091 27.2937L191.332 22.2412C193.392 23.4282 195.72 24.0732 198.098 24.1158C200.06 24.1158 200.763 23.7057 200.763 23.0028C200.763 20.4252 189.413 22.5048 189.413 14.8601C189.413 11.0524 192.62 7.933 198.976 7.933C201.666 7.88301 204.327 8.49667 206.723 9.7197L204.629 14.743C202.867 13.8118 200.91 13.31 198.918 13.2785C196.897 13.2785 196.252 13.8642 196.252 14.5672C196.252 17.0276 207.602 14.9773 207.602 22.5341C207.602 26.2832 204.395 29.4612 198.039 29.4612C194.921 29.5051 191.843 28.7595 189.091 27.2937Z" fill="#FAFAFA"/>
<path d="M228.882 16.1488C228.882 20.8938 225.25 23.8814 219.524 23.8814H216.595V28.9339H209.682V8.43088H219.553C225.25 8.40159 228.882 11.4038 228.882 16.1488ZM221.896 16.1488C221.896 14.6843 220.988 13.747 219.084 13.747H216.565V18.5506H219.084C220.988 18.5506 221.94 17.6426 221.94 16.1488H221.896Z" fill="#FAFAFA"/>
<path d="M231.137 8.40137H238.049V28.9044H231.137V8.40137Z" fill="#FAFAFA"/>
<path d="M245.854 13.7761H239.835V8.40137H258.771V13.7761H252.767V28.9337H245.854V13.7761Z" fill="#FAFAFA"/>
<path d="M273.519 25.3457H265.728L264.351 28.9337H257.307L266.285 8.43066H273.08L282.057 28.9337H274.896L273.519 25.3457ZM271.615 20.3664L269.624 15.2113L267.632 20.3664H271.615Z" fill="#FAFAFA"/>
<path d="M283.17 8.40137H290.082V23.559H299.353V28.9337H283.17V8.40137Z" fill="#FAFAFA"/>
<path d="M150.179 71.1406H130.555V90.7503H150.179V71.1406Z" fill="#455A64"/>
<path d="M150.179 136.296H130.555V155.921H150.179V136.296Z" fill="#455A64"/>
<path d="M150.179 204.704H130.555V224.328H150.179V204.704Z" fill="#455A64"/>
<path d="M150.179 273.11H130.555V292.735H150.179V273.11Z" fill="#455A64"/>
<g opacity="0.3">
<path d="M116.393 105.586H98.4678V116.365H116.393V105.586Z" fill="white"/>
</g>
<g opacity="0.3">
<path d="M116.393 46.5518H98.4678V57.3305H116.393V46.5518Z" fill="white"/>
</g>
<g opacity="0.3">
<path d="M261.305 30.0322H243.38V40.811H261.305V30.0322Z" fill="white"/>
</g>
<g opacity="0.3">
<path d="M237.594 24.0132H219.668V34.7919H237.594V24.0132Z" fill="white"/>
</g>
<g opacity="0.3">
<path d="M116.393 178.108H98.4678V188.887H116.393V178.108Z" fill="white"/>
</g>
<g opacity="0.3">
<path d="M116.393 250.616H98.4678V261.394H116.393V250.616Z" fill="white"/>
</g>
<path d="M305.227 372.711H168.911V50.4766H305.227V53.4056H171.84V369.782H305.227V372.711Z" fill="#E0E0E0"/>
<path d="M305.226 123.058H170.375V128.447H305.226V123.058Z" fill="#E0E0E0"/>
<path d="M305.226 206.329H170.375V211.718H305.226V206.329Z" fill="#E0E0E0"/>
<path d="M305.226 289.601H170.375V294.99H305.226V289.601Z" fill="#E0E0E0"/>
<path d="M218.411 52.9662V370.851C218.411 370.941 218.446 371.026 218.509 371.09C218.572 371.153 218.658 371.188 218.747 371.188C218.837 371.188 218.922 371.153 218.986 371.09C219.049 371.026 219.084 370.941 219.084 370.851V52.9662C219.084 52.8769 219.049 52.7912 218.986 52.7281C218.922 52.6649 218.837 52.6294 218.747 52.6294C218.658 52.6294 218.572 52.6649 218.509 52.7281C218.446 52.7912 218.411 52.8769 218.411 52.9662Z" fill="#E0E0E0"/>
<path d="M267.457 51.9413V371.203C267.457 371.293 267.492 371.378 267.555 371.441C267.618 371.505 267.704 371.54 267.793 371.54C267.883 371.54 267.968 371.505 268.032 371.441C268.095 371.378 268.13 371.293 268.13 371.203V51.9413C268.13 51.852 268.095 51.7663 268.032 51.7032C267.968 51.64 267.883 51.6045 267.793 51.6045C267.704 51.6045 267.618 51.64 267.555 51.7032C267.492 51.7663 267.457 51.852 267.457 51.9413Z" fill="#E0E0E0"/>
<path d="M171.136 250.996H304.406C304.495 250.996 304.581 250.961 304.644 250.898C304.707 250.835 304.743 250.749 304.743 250.66C304.743 250.57 304.707 250.485 304.644 250.421C304.581 250.358 304.495 250.323 304.406 250.323H171.136C171.047 250.323 170.961 250.358 170.898 250.421C170.835 250.485 170.799 250.57 170.799 250.66C170.799 250.749 170.835 250.835 170.898 250.898C170.961 250.961 171.047 250.996 171.136 250.996Z" fill="#E0E0E0"/>
<path d="M171.136 169.101H304.406C304.495 169.101 304.581 169.066 304.644 169.003C304.707 168.94 304.743 168.854 304.743 168.765C304.743 168.675 304.707 168.59 304.644 168.526C304.581 168.463 304.495 168.428 304.406 168.428H171.136C171.047 168.428 170.961 168.463 170.898 168.526C170.835 168.59 170.799 168.675 170.799 168.765C170.799 168.854 170.835 168.94 170.898 169.003C170.961 169.066 171.047 169.101 171.136 169.101Z" fill="#E0E0E0"/>
<path d="M171.136 87.9534H304.406C304.495 87.9534 304.581 87.918 304.644 87.8548C304.707 87.7916 304.743 87.7059 304.743 87.6166C304.743 87.5273 304.707 87.4416 304.644 87.3784C304.581 87.3153 304.495 87.2798 304.406 87.2798H171.136C171.047 87.2798 170.961 87.3153 170.898 87.3784C170.835 87.4416 170.799 87.5273 170.799 87.6166C170.799 87.7059 170.835 87.7916 170.898 87.8548C170.961 87.918 171.047 87.9534 171.136 87.9534Z" fill="#E0E0E0"/>
<g opacity="0.3">
<path d="M305.372 76.1055L171.136 160.812V185.885L305.226 105.132L305.372 76.1055Z" fill="white"/>
</g>
<g opacity="0.3">
<path d="M305.372 232.544L171.136 317.251V342.338L305.226 261.57L305.372 232.544Z" fill="white"/>
</g>
<g opacity="0.3">
<path d="M305.372 142.711L171.136 227.418V237.362L305.226 155.906L305.372 142.711Z" fill="white"/>
</g>
<g opacity="0.3">
<path d="M134.099 292.735V275.908H150.164V273.11H130.555V292.735H134.099Z" fill="black"/>
</g>
<g opacity="0.3">
<path d="M134.099 155.906V139.079H150.164V136.296H130.555V155.906H134.099Z" fill="black"/>
</g>
<g opacity="0.3">
<path d="M134.099 224.313V207.486H150.164V204.704H130.555V224.313H134.099Z" fill="black"/>
</g>
<g opacity="0.3">
<path d="M134.099 90.765V73.9378H150.164V71.1553H130.555V90.765H134.099Z" fill="black"/>
</g>
<path d="M126.923 16.2365H121.416V10.7153H116.1V16.2365H110.594V21.538H116.1V27.0445H121.416V21.538H126.923V16.2365Z" fill="#DC2626"/>
<path d="M98.4667 452.79C98.2763 452.79 98.1299 355.65 98.1299 235.839C98.1299 116.028 98.2763 18.8872 98.4667 18.8872C98.6571 18.8872 98.8182 115.998 98.8182 235.839C98.8182 355.679 98.6571 452.79 98.4667 452.79Z" fill="#263238"/>
</g>
<defs>
<clipPath id="clip0_8991_17920">
<rect y="77.939" width="333.333" height="322.061" rx="161.031" fill="white"/>
</clipPath>
<clipPath id="clip1_8991_17920">
<rect width="246" height="301.449" fill="white" transform="translate(70)"/>
</clipPath>
</defs>
</svg>
